mtllib vintage_pickup_wheel_fl.mtl
usemtl vintage_pickup_wheel_fl_mat
v -0.145142 0.343064 0.140689
v -0.145142 0.343064 -0.141498
v -0.146260 0.279018 0.140689
v -0.146260 0.279018 -0.141498
v 0.159744 0.337743 -0.141498
v 0.159744 0.337743 0.140689
v 0.158626 0.273696 -0.141498
v 0.158626 0.273696 0.140689
v 0.159744 0.337743 -0.141498
v -0.145142 0.343064 -0.141498
v 0.159744 0.337743 0.140689
v -0.145142 0.343064 0.140689
v 0.158626 0.273696 0.140689
v -0.146260 0.279018 0.140689
v 0.158626 0.273696 -0.141498
v -0.146260 0.279018 -0.141498
v 0.159744 0.337743 0.140689
v -0.145142 0.343064 0.140689
v 0.158626 0.273696 0.140689
v -0.146260 0.279018 0.140689
v -0.145142 0.343064 -0.141498
v 0.159744 0.337743 -0.141498
v -0.146260 0.279018 -0.141498
v 0.158626 0.273696 -0.141498
v -0.155913 -0.274047 0.140689
v -0.155913 -0.274047 -0.141498
v -0.157031 -0.338091 0.140689
v -0.157031 -0.338091 -0.141498
v 0.148972 -0.279369 -0.141498
v 0.148972 -0.279369 0.140689
v 0.147854 -0.343413 -0.141498
v 0.147854 -0.343413 0.140689
v 0.148972 -0.279369 -0.141498
v -0.155913 -0.274047 -0.141498
v 0.148972 -0.279369 0.140689
v -0.155913 -0.274047 0.140689
v 0.147854 -0.343413 0.140689
v -0.157031 -0.338091 0.140689
v 0.147854 -0.343413 -0.141498
v -0.157031 -0.338091 -0.141498
v 0.148972 -0.279369 0.140689
v -0.155913 -0.274047 0.140689
v 0.147854 -0.343413 0.140689
v -0.157031 -0.338091 0.140689
v -0.155913 -0.274047 -0.141498
v 0.148972 -0.279369 -0.141498
v -0.157031 -0.338091 -0.141498
v 0.147854 -0.343413 -0.141498
v -0.148624 0.143557 -0.276978
v -0.148624 0.143557 -0.341034
v -0.153549 -0.138586 -0.276978
v -0.153549 -0.138586 -0.341034
v 0.156262 0.138235 -0.341034
v 0.156262 0.138235 -0.276978
v 0.151337 -0.143907 -0.341034
v 0.151337 -0.143907 -0.276978
v 0.156262 0.138235 -0.341034
v -0.148624 0.143557 -0.341034
v 0.156262 0.138235 -0.276978
v -0.148624 0.143557 -0.276978
v 0.151337 -0.143907 -0.276978
v -0.153549 -0.138586 -0.276978
v 0.151337 -0.143907 -0.341034
v -0.153549 -0.138586 -0.341034
v 0.156262 0.138235 -0.276978
v -0.148624 0.143557 -0.276978
v 0.151337 -0.143907 -0.276978
v -0.153549 -0.138586 -0.276978
v -0.148624 0.143557 -0.341034
v 0.156262 0.138235 -0.341034
v -0.153549 -0.138586 -0.341034
v 0.151337 -0.143907 -0.341034
v -0.148624 0.143557 0.340225
v -0.148624 0.143557 0.276172
v -0.153549 -0.138586 0.340225
v -0.153549 -0.138586 0.276172
v 0.156262 0.138235 0.276172
v 0.156262 0.138235 0.340225
v 0.151337 -0.143907 0.276172
v 0.151337 -0.143907 0.340225
v 0.156262 0.138235 0.276172
v -0.148624 0.143557 0.276172
v 0.156262 0.138235 0.340225
v -0.148624 0.143557 0.340225
v 0.151337 -0.143907 0.340225
v -0.153549 -0.138586 0.340225
v 0.151337 -0.143907 0.276172
v -0.153549 -0.138586 0.276172
v 0.156262 0.138235 0.340225
v -0.148624 0.143557 0.340225
v 0.151337 -0.143907 0.340225
v -0.153549 -0.138586 0.340225
v -0.148624 0.143557 0.276172
v 0.156262 0.138235 0.276172
v -0.153549 -0.138586 0.276172
v 0.151337 -0.143907 0.276172
v -0.145976 0.342738 -0.139702
v -0.149455 0.143431 -0.339039
v -0.146766 0.297495 -0.094452
v -0.150244 0.098188 -0.293789
v 0.155124 0.138114 -0.339039
v 0.158603 0.337421 -0.139702
v 0.154335 0.092872 -0.293789
v 0.157813 0.292178 -0.094452
v 0.155124 0.138114 -0.339039
v -0.149455 0.143431 -0.339039
v 0.158603 0.337421 -0.139702
v -0.145976 0.342738 -0.139702
v 0.157813 0.292178 -0.094452
v -0.146766 0.297495 -0.094452
v 0.154335 0.092872 -0.293789
v -0.150244 0.098188 -0.293789
v 0.158603 0.337421 -0.139702
v -0.145976 0.342738 -0.139702
v 0.157813 0.292178 -0.094452
v -0.146766 0.297495 -0.094452
v -0.149455 0.143431 -0.339039
v 0.155124 0.138114 -0.339039
v -0.150244 0.098188 -0.293789
v 0.154335 0.092872 -0.293789
v -0.153585 -0.093189 0.296291
v -0.157064 -0.292496 0.096954
v -0.154375 -0.138430 0.341539
v -0.157854 -0.337736 0.142202
v 0.147515 -0.297812 0.096954
v 0.150994 -0.098505 0.296291
v 0.146725 -0.343053 0.142202
v 0.150204 -0.143746 0.341539
v 0.147515 -0.297812 0.096954
v -0.157064 -0.292496 0.096954
v 0.150994 -0.098505 0.296291
v -0.153585 -0.093189 0.296291
v 0.150204 -0.143746 0.341539
v -0.154375 -0.138430 0.341539
v 0.146725 -0.343053 0.142202
v -0.157854 -0.337736 0.142202
v 0.150994 -0.098505 0.296291
v -0.153585 -0.093189 0.296291
v 0.150204 -0.143746 0.341539
v -0.154375 -0.138430 0.341539
v -0.157064 -0.292496 0.096954
v 0.147515 -0.297812 0.096954
v -0.157854 -0.337736 0.142202
v 0.146725 -0.343053 0.142202
v -0.153585 -0.093189 -0.293787
v -0.154375 -0.138431 -0.339037
v -0.157064 -0.292494 -0.094452
v -0.157854 -0.337736 -0.139702
v 0.150204 -0.143748 -0.339037
v 0.150994 -0.098505 -0.293787
v 0.146725 -0.343053 -0.139702
v 0.147515 -0.297810 -0.094452
v 0.150204 -0.143748 -0.339037
v -0.154375 -0.138431 -0.339037
v 0.150994 -0.098505 -0.293787
v -0.153585 -0.093189 -0.293787
v 0.147515 -0.297810 -0.094452
v -0.157064 -0.292494 -0.094452
v 0.146725 -0.343053 -0.139702
v -0.157854 -0.337736 -0.139702
v 0.150994 -0.098505 -0.293787
v -0.153585 -0.093189 -0.293787
v 0.147515 -0.297810 -0.094452
v -0.157064 -0.292494 -0.094452
v -0.154375 -0.138431 -0.339037
v 0.150204 -0.143748 -0.339037
v -0.157854 -0.337736 -0.139702
v 0.146725 -0.343053 -0.139702
v -0.145976 0.342736 0.142204
v -0.146766 0.297495 0.096956
v -0.149455 0.143431 0.341539
v -0.150244 0.098190 0.296291
v 0.157813 0.292178 0.096956
v 0.158603 0.337419 0.142204
v 0.154335 0.092873 0.296291
v 0.155124 0.138114 0.341539
v 0.157813 0.292178 0.096956
v -0.146766 0.297495 0.096956
v 0.158603 0.337419 0.142204
v -0.145976 0.342736 0.142204
v 0.155124 0.138114 0.341539
v -0.149455 0.143431 0.341539
v 0.154335 0.092873 0.296291
v -0.150244 0.098190 0.296291
v 0.158603 0.337419 0.142204
v -0.145976 0.342736 0.142204
v 0.155124 0.138114 0.341539
v -0.149455 0.143431 0.341539
v -0.146766 0.297495 0.096956
v 0.157813 0.292178 0.096956
v -0.150244 0.098190 0.296291
v 0.154335 0.092873 0.296291
v -0.172619 0.419916 0.172486
v -0.173587 0.364476 0.117037
v -0.176882 0.175687 0.416752
v -0.177850 0.120247 0.361303
v 0.188721 0.358152 0.117037
v 0.189689 0.413592 0.172486
v 0.184458 0.113922 0.361303
v 0.185426 0.169363 0.416752
v 0.188721 0.358152 0.117037
v -0.173587 0.364476 0.117037
v 0.189689 0.413592 0.172486
v -0.172619 0.419916 0.172486
v 0.185426 0.169363 0.416752
v -0.176882 0.175687 0.416752
v 0.184458 0.113922 0.361303
v -0.177850 0.120247 0.361303
v 0.189689 0.413592 0.172486
v -0.172619 0.419916 0.172486
v 0.185426 0.169363 0.416752
v -0.176882 0.175687 0.416752
v -0.173587 0.364476 0.117037
v 0.188721 0.358152 0.117037
v -0.177850 0.120247 0.361303
v 0.184458 0.113922 0.361303
v -0.181943 -0.114270 -0.361782
v -0.182911 -0.169709 -0.417229
v -0.186206 -0.358500 -0.117516
v -0.187174 -0.413938 -0.172963
v 0.179397 -0.176033 -0.417229
v 0.180365 -0.120595 -0.361782
v 0.175134 -0.420262 -0.172963
v 0.176102 -0.364824 -0.117516
v 0.179397 -0.176033 -0.417229
v -0.182911 -0.169709 -0.417229
v 0.180365 -0.120595 -0.361782
v -0.181943 -0.114270 -0.361782
v 0.176102 -0.364824 -0.117516
v -0.186206 -0.358500 -0.117516
v 0.175134 -0.420262 -0.172963
v -0.187174 -0.413938 -0.172963
v 0.180365 -0.120595 -0.361782
v -0.181943 -0.114270 -0.361782
v 0.176102 -0.364824 -0.117516
v -0.186206 -0.358500 -0.117516
v -0.182911 -0.169709 -0.417229
v 0.179397 -0.176033 -0.417229
v -0.187174 -0.413938 -0.172963
v 0.175134 -0.420262 -0.172963
v -0.181943 -0.114270 0.361305
v -0.186206 -0.358501 0.117037
v -0.182911 -0.169709 0.416752
v -0.187174 -0.413940 0.172484
v 0.176102 -0.364825 0.117037
v 0.180365 -0.120595 0.361305
v 0.175134 -0.420264 0.172484
v 0.179397 -0.176033 0.416752
v 0.176102 -0.364825 0.117037
v -0.186206 -0.358501 0.117037
v 0.180365 -0.120595 0.361305
v -0.181943 -0.114270 0.361305
v 0.179397 -0.176033 0.416752
v -0.182911 -0.169709 0.416752
v 0.175134 -0.420264 0.172484
v -0.187174 -0.413940 0.172484
v 0.180365 -0.120595 0.361305
v -0.181943 -0.114270 0.361305
v 0.179397 -0.176033 0.416752
v -0.182911 -0.169709 0.416752
v -0.186206 -0.358501 0.117037
v 0.176102 -0.364825 0.117037
v -0.187174 -0.413940 0.172484
v 0.175134 -0.420264 0.172484
v -0.172619 0.419916 -0.172963
v -0.176882 0.175685 -0.417231
v -0.173587 0.364477 -0.117516
v -0.177850 0.120247 -0.361784
v 0.185426 0.169361 -0.417231
v 0.189689 0.413592 -0.172963
v 0.184458 0.113922 -0.361784
v 0.188721 0.358153 -0.117516
v 0.185426 0.169361 -0.417231
v -0.176882 0.175685 -0.417231
v 0.189689 0.413592 -0.172963
v -0.172619 0.419916 -0.172963
v 0.188721 0.358153 -0.117516
v -0.173587 0.364477 -0.117516
v 0.184458 0.113922 -0.361784
v -0.177850 0.120247 -0.361784
v 0.189689 0.413592 -0.172963
v -0.172619 0.419916 -0.172963
v 0.188721 0.358153 -0.117516
v -0.173587 0.364477 -0.117516
v -0.176882 0.175685 -0.417231
v 0.185426 0.169361 -0.417231
v -0.177850 0.120247 -0.361784
v 0.184458 0.113922 -0.361784
v -0.176801 0.175700 0.416628
v -0.176801 0.175700 0.338206
v -0.182831 -0.169726 0.416628
v -0.182831 -0.169726 0.338206
v 0.185543 0.169375 0.338206
v 0.185543 0.169375 0.416628
v 0.179514 -0.176051 0.338206
v 0.179514 -0.176051 0.416628
v 0.185543 0.169375 0.338206
v -0.176801 0.175700 0.338206
v 0.185543 0.169375 0.416628
v -0.176801 0.175700 0.416628
v 0.179514 -0.176051 0.416628
v -0.182831 -0.169726 0.416628
v 0.179514 -0.176051 0.338206
v -0.182831 -0.169726 0.338206
v 0.185543 0.169375 0.416628
v -0.176801 0.175700 0.416628
v 0.179514 -0.176051 0.416628
v -0.182831 -0.169726 0.416628
v -0.176801 0.175700 0.338206
v 0.185543 0.169375 0.338206
v -0.182831 -0.169726 0.338206
v 0.179514 -0.176051 0.338206
v -0.176801 0.175700 -0.339015
v -0.176801 0.175700 -0.417436
v -0.182831 -0.169726 -0.339015
v -0.182831 -0.169726 -0.417436
v 0.185543 0.169375 -0.417436
v 0.185543 0.169375 -0.339015
v 0.179514 -0.176051 -0.417436
v 0.179514 -0.176051 -0.339015
v 0.185543 0.169375 -0.417436
v -0.176801 0.175700 -0.417436
v 0.185543 0.169375 -0.339015
v -0.176801 0.175700 -0.339015
v 0.179514 -0.176051 -0.339015
v -0.182831 -0.169726 -0.339015
v 0.179514 -0.176051 -0.417436
v -0.182831 -0.169726 -0.417436
v 0.185543 0.169375 -0.339015
v -0.176801 0.175700 -0.339015
v 0.179514 -0.176051 -0.339015
v -0.182831 -0.169726 -0.339015
v -0.176801 0.175700 -0.417436
v 0.185543 0.169375 -0.417436
v -0.182831 -0.169726 -0.417436
v 0.179514 -0.176051 -0.417436
v -0.185726 -0.335573 0.172336
v -0.185726 -0.335573 -0.173145
v -0.187094 -0.413982 0.172336
v -0.187094 -0.413982 -0.173145
v 0.176619 -0.341898 -0.173145
v 0.176619 -0.341898 0.172336
v 0.175250 -0.420307 -0.173145
v 0.175250 -0.420307 0.172336
v 0.176619 -0.341898 -0.173145
v -0.185726 -0.335573 -0.173145
v 0.176619 -0.341898 0.172336
v -0.185726 -0.335573 0.172336
v 0.175250 -0.420307 0.172336
v -0.187094 -0.413982 0.172336
v 0.175250 -0.420307 -0.173145
v -0.187094 -0.413982 -0.173145
v 0.176619 -0.341898 0.172336
v -0.185726 -0.335573 0.172336
v 0.175250 -0.420307 0.172336
v -0.187094 -0.413982 0.172336
v -0.185726 -0.335573 -0.173145
v 0.176619 -0.341898 -0.173145
v -0.187094 -0.413982 -0.173145
v 0.175250 -0.420307 -0.173145
v -0.172538 0.419957 0.172336
v -0.172538 0.419957 -0.173145
v -0.173906 0.341547 0.172336
v -0.173906 0.341547 -0.173145
v 0.189807 0.413632 -0.173145
v 0.189807 0.413632 0.172336
v 0.188438 0.335222 -0.173145
v 0.188438 0.335222 0.172336
v 0.189807 0.413632 -0.173145
v -0.172538 0.419957 -0.173145
v 0.189807 0.413632 0.172336
v -0.172538 0.419957 0.172336
v 0.188438 0.335222 0.172336
v -0.173906 0.341547 0.172336
v 0.188438 0.335222 -0.173145
v -0.173906 0.341547 -0.173145
v 0.189807 0.413632 0.172336
v -0.172538 0.419957 0.172336
v 0.188438 0.335222 0.172336
v -0.173906 0.341547 0.172336
v -0.172538 0.419957 -0.173145
v 0.189807 0.413632 -0.173145
v -0.173906 0.341547 -0.173145
v 0.188438 0.335222 -0.173145
v -0.136574 0.290182 0.291422
v -0.136574 0.290182 -0.292230
v -0.146400 -0.272739 0.291422
v -0.146400 -0.272739 -0.292230
v 0.028467 0.287301 -0.292230
v 0.028467 0.287301 0.291422
v 0.018641 -0.275620 -0.292230
v 0.018641 -0.275620 0.291422
v 0.028467 0.287301 -0.292230
v -0.136574 0.290182 -0.292230
v 0.028467 0.287301 0.291422
v -0.136574 0.290182 0.291422
v 0.018641 -0.275620 0.291422
v -0.146400 -0.272739 0.291422
v 0.018641 -0.275620 -0.292230
v -0.146400 -0.272739 -0.292230
v 0.028467 0.287301 0.291422
v -0.136574 0.290182 0.291422
v 0.018641 -0.275620 0.291422
v -0.146400 -0.272739 0.291422
v -0.136574 0.290182 -0.292230
v 0.028467 0.287301 -0.292230
v -0.146400 -0.272739 -0.292230
v 0.018641 -0.275620 -0.292230
v -0.039718 0.066830 0.069794
v -0.039718 0.066830 -0.070603
v -0.042159 -0.073049 0.069794
v -0.042159 -0.073049 -0.070603
v 0.125323 0.063949 -0.070603
v 0.125323 0.063949 0.069794
v 0.122881 -0.075930 -0.070603
v 0.122881 -0.075930 0.069794
v 0.125323 0.063949 -0.070603
v -0.039718 0.066830 -0.070603
v 0.125323 0.063949 0.069794
v -0.039718 0.066830 0.069794
v 0.122881 -0.075930 0.069794
v -0.042159 -0.073049 0.069794
v 0.122881 -0.075930 -0.070603
v -0.042159 -0.073049 -0.070603
v 0.125323 0.063949 0.069794
v -0.039718 0.066830 0.069794
v 0.122881 -0.075930 0.069794
v -0.042159 -0.073049 0.069794
v -0.039718 0.066830 -0.070603
v 0.125323 0.063949 -0.070603
v -0.042159 -0.073049 -0.070603
v 0.122881 -0.075930 -0.070603
vt 0.546875 0.308594
vt 0.551758 0.308594
vt 0.546875 0.309570
vt 0.551758 0.309570
vt 0.546875 0.308594
vt 0.551758 0.308594
vt 0.546875 0.309570
vt 0.551758 0.309570
vt 0.753906 0.089844
vt 0.758789 0.089844
vt 0.753906 0.094727
vt 0.758789 0.094727
vt 0.593750 0.258789
vt 0.598633 0.258789
vt 0.593750 0.253906
vt 0.598633 0.253906
vt 0.539062 0.308594
vt 0.543945 0.308594
vt 0.539062 0.309570
vt 0.543945 0.309570
vt 0.554688 0.308594
vt 0.559570 0.308594
vt 0.554688 0.309570
vt 0.559570 0.309570
vt 0.566406 0.308594
vt 0.571289 0.308594
vt 0.566406 0.309570
vt 0.571289 0.309570
vt 0.566406 0.308594
vt 0.571289 0.308594
vt 0.566406 0.309570
vt 0.571289 0.309570
vt 0.601562 0.253906
vt 0.606445 0.253906
vt 0.601562 0.258789
vt 0.606445 0.258789
vt 0.609375 0.258789
vt 0.614258 0.258789
vt 0.609375 0.253906
vt 0.614258 0.253906
vt 0.808594 0.058594
vt 0.813477 0.058594
vt 0.808594 0.059570
vt 0.813477 0.059570
vt 0.574219 0.308594
vt 0.579102 0.308594
vt 0.574219 0.309570
vt 0.579102 0.309570
vt 0.808594 0.085938
vt 0.809570 0.085938
vt 0.808594 0.090820
vt 0.809570 0.090820
vt 0.808594 0.085938
vt 0.809570 0.085938
vt 0.808594 0.090820
vt 0.809570 0.090820
vt 0.597656 0.308594
vt 0.602539 0.308594
vt 0.597656 0.309570
vt 0.602539 0.309570
vt 0.808594 0.098633
vt 0.813477 0.098633
vt 0.808594 0.097656
vt 0.813477 0.097656
vt 0.617188 0.253906
vt 0.622070 0.253906
vt 0.617188 0.258789
vt 0.622070 0.258789
vt 0.625000 0.253906
vt 0.629883 0.253906
vt 0.625000 0.258789
vt 0.629883 0.258789
vt 0.605469 0.308594
vt 0.606445 0.308594
vt 0.605469 0.313477
vt 0.606445 0.313477
vt 0.605469 0.308594
vt 0.606445 0.308594
vt 0.605469 0.313477
vt 0.606445 0.313477
vt 0.808594 0.101562
vt 0.813477 0.101562
vt 0.808594 0.102539
vt 0.813477 0.102539
vt 0.808594 0.110352
vt 0.813477 0.110352
vt 0.808594 0.109375
vt 0.813477 0.109375
vt 0.632812 0.253906
vt 0.637695 0.253906
vt 0.632812 0.258789
vt 0.637695 0.258789
vt 0.640625 0.253906
vt 0.645508 0.253906
vt 0.640625 0.258789
vt 0.645508 0.258789
vt 0.808594 0.113281
vt 0.813477 0.113281
vt 0.808594 0.114258
vt 0.813477 0.114258
vt 0.808594 0.113281
vt 0.813477 0.113281
vt 0.808594 0.114258
vt 0.813477 0.114258
vt 0.648438 0.253906
vt 0.653320 0.253906
vt 0.648438 0.258789
vt 0.653320 0.258789
vt 0.656250 0.258789
vt 0.661133 0.258789
vt 0.656250 0.253906
vt 0.661133 0.253906
vt 0.613281 0.308594
vt 0.618164 0.308594
vt 0.613281 0.309570
vt 0.618164 0.309570
vt 0.808594 0.117188
vt 0.813477 0.117188
vt 0.808594 0.118164
vt 0.813477 0.118164
vt 0.632812 0.308594
vt 0.637695 0.308594
vt 0.632812 0.309570
vt 0.637695 0.309570
vt 0.632812 0.308594
vt 0.637695 0.308594
vt 0.632812 0.309570
vt 0.637695 0.309570
vt 0.664062 0.253906
vt 0.668945 0.253906
vt 0.664062 0.258789
vt 0.668945 0.258789
vt 0.753906 0.168945
vt 0.758789 0.168945
vt 0.753906 0.164062
vt 0.758789 0.164062
vt 0.808594 0.121094
vt 0.813477 0.121094
vt 0.808594 0.122070
vt 0.813477 0.122070
vt 0.640625 0.308594
vt 0.645508 0.308594
vt 0.640625 0.309570
vt 0.645508 0.309570
vt 0.656250 0.308594
vt 0.657227 0.308594
vt 0.656250 0.313477
vt 0.657227 0.313477
vt 0.656250 0.308594
vt 0.657227 0.308594
vt 0.656250 0.313477
vt 0.657227 0.313477
vt 0.808594 0.160156
vt 0.813477 0.160156
vt 0.808594 0.161133
vt 0.813477 0.161133
vt 0.664062 0.309570
vt 0.668945 0.309570
vt 0.664062 0.308594
vt 0.668945 0.308594
vt 0.753906 0.195312
vt 0.758789 0.195312
vt 0.753906 0.200195
vt 0.758789 0.200195
vt 0.699219 0.253906
vt 0.704102 0.253906
vt 0.699219 0.258789
vt 0.704102 0.258789
vt 0.808594 0.171875
vt 0.809570 0.171875
vt 0.808594 0.176758
vt 0.809570 0.176758
vt 0.808594 0.171875
vt 0.809570 0.171875
vt 0.808594 0.176758
vt 0.809570 0.176758
vt 0.808594 0.164062
vt 0.813477 0.164062
vt 0.808594 0.165039
vt 0.813477 0.165039
vt 0.679688 0.309570
vt 0.684570 0.309570
vt 0.679688 0.308594
vt 0.684570 0.308594
vt 0.753906 0.203125
vt 0.758789 0.203125
vt 0.753906 0.208008
vt 0.758789 0.208008
vt 0.707031 0.253906
vt 0.711914 0.253906
vt 0.707031 0.258789
vt 0.711914 0.258789
vt 0.593750 0.296875
vt 0.594727 0.296875
vt 0.593750 0.302734
vt 0.594727 0.302734
vt 0.589844 0.296875
vt 0.590820 0.296875
vt 0.589844 0.302734
vt 0.590820 0.302734
vt 0.796875 0.093750
vt 0.802734 0.093750
vt 0.796875 0.094727
vt 0.802734 0.094727
vt 0.597656 0.297852
vt 0.603516 0.297852
vt 0.597656 0.296875
vt 0.603516 0.296875
vt 0.609375 0.218750
vt 0.615234 0.218750
vt 0.609375 0.224609
vt 0.615234 0.224609
vt 0.718750 0.109375
vt 0.724609 0.109375
vt 0.718750 0.115234
vt 0.724609 0.115234
vt 0.609375 0.296875
vt 0.610352 0.296875
vt 0.609375 0.302734
vt 0.610352 0.302734
vt 0.605469 0.296875
vt 0.606445 0.296875
vt 0.605469 0.302734
vt 0.606445 0.302734
vt 0.796875 0.097656
vt 0.802734 0.097656
vt 0.796875 0.098633
vt 0.802734 0.098633
vt 0.613281 0.297852
vt 0.619141 0.297852
vt 0.613281 0.296875
vt 0.619141 0.296875
vt 0.625000 0.218750
vt 0.630859 0.218750
vt 0.625000 0.224609
vt 0.630859 0.224609
vt 0.632812 0.218750
vt 0.638672 0.218750
vt 0.632812 0.224609
vt 0.638672 0.224609
vt 0.796875 0.125000
vt 0.802734 0.125000
vt 0.796875 0.125977
vt 0.802734 0.125977
vt 0.621094 0.296875
vt 0.626953 0.296875
vt 0.621094 0.297852
vt 0.626953 0.297852
vt 0.718750 0.136719
vt 0.724609 0.136719
vt 0.718750 0.142578
vt 0.724609 0.142578
vt 0.640625 0.224609
vt 0.646484 0.224609
vt 0.640625 0.218750
vt 0.646484 0.218750
vt 0.796875 0.117188
vt 0.802734 0.117188
vt 0.796875 0.118164
vt 0.802734 0.118164
vt 0.796875 0.121094
vt 0.802734 0.121094
vt 0.796875 0.122070
vt 0.802734 0.122070
vt 0.644531 0.296875
vt 0.650391 0.296875
vt 0.644531 0.297852
vt 0.650391 0.297852
vt 0.636719 0.296875
vt 0.642578 0.296875
vt 0.636719 0.297852
vt 0.642578 0.297852
vt 0.718750 0.144531
vt 0.724609 0.144531
vt 0.718750 0.150391
vt 0.724609 0.150391
vt 0.648438 0.224609
vt 0.654297 0.224609
vt 0.648438 0.218750
vt 0.654297 0.218750
vt 0.796875 0.132812
vt 0.802734 0.132812
vt 0.796875 0.133789
vt 0.802734 0.133789
vt 0.796875 0.140625
vt 0.802734 0.140625
vt 0.796875 0.141602
vt 0.802734 0.141602
vt 0.652344 0.296875
vt 0.653320 0.296875
vt 0.652344 0.302734
vt 0.653320 0.302734
vt 0.628906 0.296875
vt 0.629883 0.296875
vt 0.628906 0.302734
vt 0.629883 0.302734
vt 0.796875 0.144531
vt 0.802734 0.144531
vt 0.796875 0.145508
vt 0.802734 0.145508
vt 0.796875 0.153320
vt 0.802734 0.153320
vt 0.796875 0.152344
vt 0.802734 0.152344
vt 0.656250 0.218750
vt 0.662109 0.218750
vt 0.656250 0.224609
vt 0.662109 0.224609
vt 0.718750 0.156250
vt 0.724609 0.156250
vt 0.718750 0.162109
vt 0.724609 0.162109
vt 0.796875 0.156250
vt 0.797852 0.156250
vt 0.796875 0.162109
vt 0.797852 0.162109
vt 0.656250 0.296875
vt 0.657227 0.296875
vt 0.656250 0.302734
vt 0.657227 0.302734
vt 0.664062 0.296875
vt 0.669922 0.296875
vt 0.664062 0.297852
vt 0.669922 0.297852
vt 0.796875 0.165039
vt 0.802734 0.165039
vt 0.796875 0.164062
vt 0.802734 0.164062
vt 0.664062 0.218750
vt 0.669922 0.218750
vt 0.664062 0.224609
vt 0.669922 0.224609
vt 0.671875 0.218750
vt 0.677734 0.218750
vt 0.671875 0.224609
vt 0.677734 0.224609
vt 0.796875 0.179688
vt 0.802734 0.179688
vt 0.796875 0.180664
vt 0.802734 0.180664
vt 0.796875 0.175781
vt 0.802734 0.175781
vt 0.796875 0.176758
vt 0.802734 0.176758
vt 0.718750 0.175781
vt 0.724609 0.175781
vt 0.718750 0.181641
vt 0.724609 0.181641
vt 0.679688 0.224609
vt 0.685547 0.224609
vt 0.679688 0.218750
vt 0.685547 0.218750
vt 0.671875 0.296875
vt 0.677734 0.296875
vt 0.671875 0.297852
vt 0.677734 0.297852
vt 0.679688 0.296875
vt 0.685547 0.296875
vt 0.679688 0.297852
vt 0.685547 0.297852
vt 0.703125 0.296875
vt 0.708984 0.296875
vt 0.703125 0.297852
vt 0.708984 0.297852
vt 0.695312 0.296875
vt 0.701172 0.296875
vt 0.695312 0.297852
vt 0.701172 0.297852
vt 0.718750 0.183594
vt 0.724609 0.183594
vt 0.718750 0.189453
vt 0.724609 0.189453
vt 0.687500 0.224609
vt 0.693359 0.224609
vt 0.687500 0.218750
vt 0.693359 0.218750
vt 0.687500 0.296875
vt 0.693359 0.296875
vt 0.687500 0.297852
vt 0.693359 0.297852
vt 0.796875 0.195312
vt 0.802734 0.195312
vt 0.796875 0.196289
vt 0.802734 0.196289
vt 0.648438 0.038379
vt 0.658203 0.038379
vt 0.648438 0.049121
vt 0.658203 0.049121
vt 0.550781 0.148438
vt 0.560547 0.148438
vt 0.550781 0.158203
vt 0.560547 0.158203
vt 0.605469 0.226562
vt 0.608398 0.226562
vt 0.605469 0.236328
vt 0.608398 0.236328
vt 0.609375 0.236328
vt 0.612305 0.236328
vt 0.609375 0.226562
vt 0.612305 0.226562
vt 0.625000 0.234375
vt 0.627930 0.234375
vt 0.625000 0.243164
vt 0.627930 0.243164
vt 0.628906 0.234375
vt 0.631836 0.234375
vt 0.628906 0.243164
vt 0.631836 0.243164
vt 0.574219 0.312500
vt 0.576172 0.312500
vt 0.574219 0.314453
vt 0.576172 0.314453
vt 0.812500 0.070312
vt 0.814453 0.070312
vt 0.812500 0.072266
vt 0.814453 0.072266
vt 0.710938 0.296875
vt 0.713867 0.296875
vt 0.710938 0.298828
vt 0.713867 0.298828
vt 0.796875 0.212891
vt 0.799805 0.212891
vt 0.796875 0.210938
vt 0.799805 0.210938
vt 0.796875 0.203125
vt 0.799805 0.203125
vt 0.796875 0.205078
vt 0.799805 0.205078
vt 0.796875 0.207031
vt 0.799805 0.207031
vt 0.796875 0.208984
vt 0.799805 0.208984
vn -0.999848 0.017452 0.000000
vn -0.999848 0.017452 0.000000
vn -0.999848 0.017452 0.000000
vn -0.999848 0.017452 0.000000
vn 0.999848 -0.017452 0.000000
vn 0.999848 -0.017452 0.000000
vn 0.999848 -0.017452 0.000000
vn 0.999848 -0.017452 0.000000
vn 0.017452 0.999848 0.000000
vn 0.017452 0.999848 0.000000
vn 0.017452 0.999848 0.000000
vn 0.017452 0.999848 0.000000
vn -0.017452 -0.999848 0.000000
vn -0.017452 -0.999848 0.000000
vn -0.017452 -0.999848 0.000000
vn -0.017452 -0.999848 0.000000
vn -0.000000 0.000000 1.000000
vn -0.000000 0.000000 1.000000
vn -0.000000 0.000000 1.000000
vn -0.000000 0.000000 1.000000
vn -0.000000 0.000000 -1.000000
vn -0.000000 0.000000 -1.000000
vn -0.000000 0.000000 -1.000000
vn -0.000000 0.000000 -1.000000
vn -0.999848 0.017452 0.000000
vn -0.999848 0.017452 0.000000
vn -0.999848 0.017452 0.000000
vn -0.999848 0.017452 0.000000
vn 0.999848 -0.017452 0.000000
vn 0.999848 -0.017452 0.000000
vn 0.999848 -0.017452 0.000000
vn 0.999848 -0.017452 0.000000
vn 0.017452 0.999848 0.000000
vn 0.017452 0.999848 0.000000
vn 0.017452 0.999848 0.000000
vn 0.017452 0.999848 0.000000
vn -0.017452 -0.999848 0.000000
vn -0.017452 -0.999848 0.000000
vn -0.017452 -0.999848 0.000000
vn -0.017452 -0.999848 0.000000
vn -0.000000 0.000000 1.000000
vn -0.000000 0.000000 1.000000
vn -0.000000 0.000000 1.000000
vn -0.000000 0.000000 1.000000
vn -0.000000 0.000000 -1.000000
vn -0.000000 0.000000 -1.000000
vn -0.000000 0.000000 -1.000000
vn -0.000000 0.000000 -1.000000
vn -0.999848 0.017452 0.000000
vn -0.999848 0.017452 0.000000
vn -0.999848 0.017452 0.000000
vn -0.999848 0.017452 0.000000
vn 0.999848 -0.017452 0.000000
vn 0.999848 -0.017452 0.000000
vn 0.999848 -0.017452 0.000000
vn 0.999848 -0.017452 0.000000
vn 0.017452 0.999848 0.000000
vn 0.017452 0.999848 0.000000
vn 0.017452 0.999848 0.000000
vn 0.017452 0.999848 0.000000
vn -0.017452 -0.999848 0.000000
vn -0.017452 -0.999848 0.000000
vn -0.017452 -0.999848 0.000000
vn -0.017452 -0.999848 0.000000
vn -0.000000 0.000000 1.000000
vn -0.000000 0.000000 1.000000
vn -0.000000 0.000000 1.000000
vn -0.000000 0.000000 1.000000
vn -0.000000 0.000000 -1.000000
vn -0.000000 0.000000 -1.000000
vn -0.000000 0.000000 -1.000000
vn -0.000000 0.000000 -1.000000
vn -0.999848 0.017452 0.000000
vn -0.999848 0.017452 0.000000
vn -0.999848 0.017452 0.000000
vn -0.999848 0.017452 0.000000
vn 0.999848 -0.017452 0.000000
vn 0.999848 -0.017452 0.000000
vn 0.999848 -0.017452 0.000000
vn 0.999848 -0.017452 0.000000
vn 0.017452 0.999848 0.000000
vn 0.017452 0.999848 0.000000
vn 0.017452 0.999848 0.000000
vn 0.017452 0.999848 0.000000
vn -0.017452 -0.999848 0.000000
vn -0.017452 -0.999848 0.000000
vn -0.017452 -0.999848 0.000000
vn -0.017452 -0.999848 0.000000
vn -0.000000 0.000000 1.000000
vn -0.000000 0.000000 1.000000
vn -0.000000 0.000000 1.000000
vn -0.000000 0.000000 1.000000
vn -0.000000 0.000000 -1.000000
vn -0.000000 0.000000 -1.000000
vn -0.000000 0.000000 -1.000000
vn -0.000000 0.000000 -1.000000
vn -0.999848 0.017452 0.000000
vn -0.999848 0.017452 0.000000
vn -0.999848 0.017452 0.000000
vn -0.999848 0.017452 0.000000
vn 0.999848 -0.017452 0.000000
vn 0.999848 -0.017452 0.000000
vn 0.999848 -0.017452 0.000000
vn 0.999848 -0.017452 0.000000
vn 0.012341 0.706999 -0.707107
vn 0.012341 0.706999 -0.707107
vn 0.012341 0.706999 -0.707107
vn 0.012341 0.706999 -0.707107
vn -0.012341 -0.706999 0.707107
vn -0.012341 -0.706999 0.707107
vn -0.012341 -0.706999 0.707107
vn -0.012341 -0.706999 0.707107
vn 0.012341 0.706999 0.707107
vn 0.012341 0.706999 0.707107
vn 0.012341 0.706999 0.707107
vn 0.012341 0.706999 0.707107
vn -0.012341 -0.706999 -0.707107
vn -0.012341 -0.706999 -0.707107
vn -0.012341 -0.706999 -0.707107
vn -0.012341 -0.706999 -0.707107
vn -0.999848 0.017452 0.000000
vn -0.999848 0.017452 0.000000
vn -0.999848 0.017452 0.000000
vn -0.999848 0.017452 0.000000
vn 0.999848 -0.017452 0.000000
vn 0.999848 -0.017452 0.000000
vn 0.999848 -0.017452 0.000000
vn 0.999848 -0.017452 0.000000
vn 0.012341 0.706999 -0.707107
vn 0.012341 0.706999 -0.707107
vn 0.012341 0.706999 -0.707107
vn 0.012341 0.706999 -0.707107
vn -0.012341 -0.706999 0.707107
vn -0.012341 -0.706999 0.707107
vn -0.012341 -0.706999 0.707107
vn -0.012341 -0.706999 0.707107
vn 0.012341 0.706999 0.707107
vn 0.012341 0.706999 0.707107
vn 0.012341 0.706999 0.707107
vn 0.012341 0.706999 0.707107
vn -0.012341 -0.706999 -0.707107
vn -0.012341 -0.706999 -0.707107
vn -0.012341 -0.706999 -0.707107
vn -0.012341 -0.706999 -0.707107
vn -0.999848 0.017452 0.000000
vn -0.999848 0.017452 0.000000
vn -0.999848 0.017452 0.000000
vn -0.999848 0.017452 0.000000
vn 0.999848 -0.017452 0.000000
vn 0.999848 -0.017452 0.000000
vn 0.999848 -0.017452 0.000000
vn 0.999848 -0.017452 0.000000
vn 0.012341 0.706999 -0.707107
vn 0.012341 0.706999 -0.707107
vn 0.012341 0.706999 -0.707107
vn 0.012341 0.706999 -0.707107
vn -0.012341 -0.706999 0.707107
vn -0.012341 -0.706999 0.707107
vn -0.012341 -0.706999 0.707107
vn -0.012341 -0.706999 0.707107
vn 0.012341 0.706999 0.707107
vn 0.012341 0.706999 0.707107
vn 0.012341 0.706999 0.707107
vn 0.012341 0.706999 0.707107
vn -0.012341 -0.706999 -0.707107
vn -0.012341 -0.706999 -0.707107
vn -0.012341 -0.706999 -0.707107
vn -0.012341 -0.706999 -0.707107
vn -0.999848 0.017452 0.000000
vn -0.999848 0.017452 0.000000
vn -0.999848 0.017452 0.000000
vn -0.999848 0.017452 0.000000
vn 0.999848 -0.017452 0.000000
vn 0.999848 -0.017452 0.000000
vn 0.999848 -0.017452 0.000000
vn 0.999848 -0.017452 0.000000
vn 0.012341 0.706999 -0.707107
vn 0.012341 0.706999 -0.707107
vn 0.012341 0.706999 -0.707107
vn 0.012341 0.706999 -0.707107
vn -0.012341 -0.706999 0.707107
vn -0.012341 -0.706999 0.707107
vn -0.012341 -0.706999 0.707107
vn -0.012341 -0.706999 0.707107
vn 0.012341 0.706999 0.707107
vn 0.012341 0.706999 0.707107
vn 0.012341 0.706999 0.707107
vn 0.012341 0.706999 0.707107
vn -0.012341 -0.706999 -0.707107
vn -0.012341 -0.706999 -0.707107
vn -0.012341 -0.706999 -0.707107
vn -0.012341 -0.706999 -0.707107
vn -0.999848 0.017452 0.000000
vn -0.999848 0.017452 0.000000
vn -0.999848 0.017452 0.000000
vn -0.999848 0.017452 0.000000
vn 0.999848 -0.017452 0.000000
vn 0.999848 -0.017452 0.000000
vn 0.999848 -0.017452 0.000000
vn 0.999848 -0.017452 0.000000
vn 0.012341 0.706999 -0.707107
vn 0.012341 0.706999 -0.707107
vn 0.012341 0.706999 -0.707107
vn 0.012341 0.706999 -0.707107
vn -0.012341 -0.706999 0.707107
vn -0.012341 -0.706999 0.707107
vn -0.012341 -0.706999 0.707107
vn -0.012341 -0.706999 0.707107
vn 0.012341 0.706999 0.707107
vn 0.012341 0.706999 0.707107
vn 0.012341 0.706999 0.707107
vn 0.012341 0.706999 0.707107
vn -0.012341 -0.706999 -0.707107
vn -0.012341 -0.706999 -0.707107
vn -0.012341 -0.706999 -0.707107
vn -0.012341 -0.706999 -0.707107
vn -0.999848 0.017452 0.000000
vn -0.999848 0.017452 0.000000
vn -0.999848 0.017452 0.000000
vn -0.999848 0.017452 0.000000
vn 0.999848 -0.017452 0.000000
vn 0.999848 -0.017452 0.000000
vn 0.999848 -0.017452 0.000000
vn 0.999848 -0.017452 0.000000
vn 0.012341 0.706999 -0.707107
vn 0.012341 0.706999 -0.707107
vn 0.012341 0.706999 -0.707107
vn 0.012341 0.706999 -0.707107
vn -0.012341 -0.706999 0.707107
vn -0.012341 -0.706999 0.707107
vn -0.012341 -0.706999 0.707107
vn -0.012341 -0.706999 0.707107
vn 0.012341 0.706999 0.707107
vn 0.012341 0.706999 0.707107
vn 0.012341 0.706999 0.707107
vn 0.012341 0.706999 0.707107
vn -0.012341 -0.706999 -0.707107
vn -0.012341 -0.706999 -0.707107
vn -0.012341 -0.706999 -0.707107
vn -0.012341 -0.706999 -0.707107
vn -0.999848 0.017452 0.000000
vn -0.999848 0.017452 0.000000
vn -0.999848 0.017452 0.000000
vn -0.999848 0.017452 0.000000
vn 0.999848 -0.017452 0.000000
vn 0.999848 -0.017452 0.000000
vn 0.999848 -0.017452 0.000000
vn 0.999848 -0.017452 0.000000
vn 0.012341 0.706999 -0.707107
vn 0.012341 0.706999 -0.707107
vn 0.012341 0.706999 -0.707107
vn 0.012341 0.706999 -0.707107
vn -0.012341 -0.706999 0.707107
vn -0.012341 -0.706999 0.707107
vn -0.012341 -0.706999 0.707107
vn -0.012341 -0.706999 0.707107
vn 0.012341 0.706999 0.707107
vn 0.012341 0.706999 0.707107
vn 0.012341 0.706999 0.707107
vn 0.012341 0.706999 0.707107
vn -0.012341 -0.706999 -0.707107
vn -0.012341 -0.706999 -0.707107
vn -0.012341 -0.706999 -0.707107
vn -0.012341 -0.706999 -0.707107
vn -0.999848 0.017452 0.000000
vn -0.999848 0.017452 0.000000
vn -0.999848 0.017452 0.000000
vn -0.999848 0.017452 0.000000
vn 0.999848 -0.017452 0.000000
vn 0.999848 -0.017452 0.000000
vn 0.999848 -0.017452 0.000000
vn 0.999848 -0.017452 0.000000
vn 0.012341 0.706999 -0.707107
vn 0.012341 0.706999 -0.707107
vn 0.012341 0.706999 -0.707107
vn 0.012341 0.706999 -0.707107
vn -0.012341 -0.706999 0.707107
vn -0.012341 -0.706999 0.707107
vn -0.012341 -0.706999 0.707107
vn -0.012341 -0.706999 0.707107
vn 0.012341 0.706999 0.707107
vn 0.012341 0.706999 0.707107
vn 0.012341 0.706999 0.707107
vn 0.012341 0.706999 0.707107
vn -0.012341 -0.706999 -0.707107
vn -0.012341 -0.706999 -0.707107
vn -0.012341 -0.706999 -0.707107
vn -0.012341 -0.706999 -0.707107
vn -0.999848 0.017452 0.000000
vn -0.999848 0.017452 0.000000
vn -0.999848 0.017452 0.000000
vn -0.999848 0.017452 0.000000
vn 0.999848 -0.017452 0.000000
vn 0.999848 -0.017452 0.000000
vn 0.999848 -0.017452 0.000000
vn 0.999848 -0.017452 0.000000
vn 0.017452 0.999848 0.000000
vn 0.017452 0.999848 0.000000
vn 0.017452 0.999848 0.000000
vn 0.017452 0.999848 0.000000
vn -0.017452 -0.999848 0.000000
vn -0.017452 -0.999848 0.000000
vn -0.017452 -0.999848 0.000000
vn -0.017452 -0.999848 0.000000
vn -0.000000 0.000000 1.000000
vn -0.000000 0.000000 1.000000
vn -0.000000 0.000000 1.000000
vn -0.000000 0.000000 1.000000
vn -0.000000 0.000000 -1.000000
vn -0.000000 0.000000 -1.000000
vn -0.000000 0.000000 -1.000000
vn -0.000000 0.000000 -1.000000
vn -0.999848 0.017452 0.000000
vn -0.999848 0.017452 0.000000
vn -0.999848 0.017452 0.000000
vn -0.999848 0.017452 0.000000
vn 0.999848 -0.017452 0.000000
vn 0.999848 -0.017452 0.000000
vn 0.999848 -0.017452 0.000000
vn 0.999848 -0.017452 0.000000
vn 0.017452 0.999848 0.000000
vn 0.017452 0.999848 0.000000
vn 0.017452 0.999848 0.000000
vn 0.017452 0.999848 0.000000
vn -0.017452 -0.999848 0.000000
vn -0.017452 -0.999848 0.000000
vn -0.017452 -0.999848 0.000000
vn -0.017452 -0.999848 0.000000
vn -0.000000 0.000000 1.000000
vn -0.000000 0.000000 1.000000
vn -0.000000 0.000000 1.000000
vn -0.000000 0.000000 1.000000
vn -0.000000 0.000000 -1.000000
vn -0.000000 0.000000 -1.000000
vn -0.000000 0.000000 -1.000000
vn -0.000000 0.000000 -1.000000
vn -0.999848 0.017452 0.000000
vn -0.999848 0.017452 0.000000
vn -0.999848 0.017452 0.000000
vn -0.999848 0.017452 0.000000
vn 0.999848 -0.017452 0.000000
vn 0.999848 -0.017452 0.000000
vn 0.999848 -0.017452 0.000000
vn 0.999848 -0.017452 0.000000
vn 0.017452 0.999848 0.000000
vn 0.017452 0.999848 0.000000
vn 0.017452 0.999848 0.000000
vn 0.017452 0.999848 0.000000
vn -0.017452 -0.999848 0.000000
vn -0.017452 -0.999848 0.000000
vn -0.017452 -0.999848 0.000000
vn -0.017452 -0.999848 0.000000
vn -0.000000 0.000000 1.000000
vn -0.000000 0.000000 1.000000
vn -0.000000 0.000000 1.000000
vn -0.000000 0.000000 1.000000
vn -0.000000 0.000000 -1.000000
vn -0.000000 0.000000 -1.000000
vn -0.000000 0.000000 -1.000000
vn -0.000000 0.000000 -1.000000
vn -0.999848 0.017452 0.000000
vn -0.999848 0.017452 0.000000
vn -0.999848 0.017452 0.000000
vn -0.999848 0.017452 0.000000
vn 0.999848 -0.017452 0.000000
vn 0.999848 -0.017452 0.000000
vn 0.999848 -0.017452 0.000000
vn 0.999848 -0.017452 0.000000
vn 0.017452 0.999848 0.000000
vn 0.017452 0.999848 0.000000
vn 0.017452 0.999848 0.000000
vn 0.017452 0.999848 0.000000
vn -0.017452 -0.999848 0.000000
vn -0.017452 -0.999848 0.000000
vn -0.017452 -0.999848 0.000000
vn -0.017452 -0.999848 0.000000
vn -0.000000 0.000000 1.000000
vn -0.000000 0.000000 1.000000
vn -0.000000 0.000000 1.000000
vn -0.000000 0.000000 1.000000
vn -0.000000 0.000000 -1.000000
vn -0.000000 0.000000 -1.000000
vn -0.000000 0.000000 -1.000000
vn -0.000000 0.000000 -1.000000
vn -0.999848 0.017452 0.000000
vn -0.999848 0.017452 0.000000
vn -0.999848 0.017452 0.000000
vn -0.999848 0.017452 0.000000
vn 0.999848 -0.017452 0.000000
vn 0.999848 -0.017452 0.000000
vn 0.999848 -0.017452 0.000000
vn 0.999848 -0.017452 0.000000
vn 0.017452 0.999848 0.000000
vn 0.017452 0.999848 0.000000
vn 0.017452 0.999848 0.000000
vn 0.017452 0.999848 0.000000
vn -0.017452 -0.999848 0.000000
vn -0.017452 -0.999848 0.000000
vn -0.017452 -0.999848 0.000000
vn -0.017452 -0.999848 0.000000
vn -0.000000 0.000000 1.000000
vn -0.000000 0.000000 1.000000
vn -0.000000 0.000000 1.000000
vn -0.000000 0.000000 1.000000
vn -0.000000 0.000000 -1.000000
vn -0.000000 0.000000 -1.000000
vn -0.000000 0.000000 -1.000000
vn -0.000000 0.000000 -1.000000
vn -0.999848 0.017452 0.000000
vn -0.999848 0.017452 0.000000
vn -0.999848 0.017452 0.000000
vn -0.999848 0.017452 0.000000
vn 0.999848 -0.017452 0.000000
vn 0.999848 -0.017452 0.000000
vn 0.999848 -0.017452 0.000000
vn 0.999848 -0.017452 0.000000
vn 0.017452 0.999848 0.000000
vn 0.017452 0.999848 0.000000
vn 0.017452 0.999848 0.000000
vn 0.017452 0.999848 0.000000
vn -0.017452 -0.999848 0.000000
vn -0.017452 -0.999848 0.000000
vn -0.017452 -0.999848 0.000000
vn -0.017452 -0.999848 0.000000
vn -0.000000 0.000000 1.000000
vn -0.000000 0.000000 1.000000
vn -0.000000 0.000000 1.000000
vn -0.000000 0.000000 1.000000
vn -0.000000 0.000000 -1.000000
vn -0.000000 0.000000 -1.000000
vn -0.000000 0.000000 -1.000000
vn -0.000000 0.000000 -1.000000
f 1/1/1 2/2/2 3/3/3
f 3/3/3 2/2/2 4/4/4
f 5/5/5 6/6/6 7/7/7
f 7/7/7 6/6/6 8/8/8
f 9/9/9 10/10/10 11/11/11
f 11/11/11 10/10/10 12/12/12
f 13/13/13 14/14/14 15/15/15
f 15/15/15 14/14/14 16/16/16
f 17/17/17 18/18/18 19/19/19
f 19/19/19 18/18/18 20/20/20
f 21/21/21 22/22/22 23/23/23
f 23/23/23 22/22/22 24/24/24
f 25/25/25 26/26/26 27/27/27
f 27/27/27 26/26/26 28/28/28
f 29/29/29 30/30/30 31/31/31
f 31/31/31 30/30/30 32/32/32
f 33/33/33 34/34/34 35/35/35
f 35/35/35 34/34/34 36/36/36
f 37/37/37 38/38/38 39/39/39
f 39/39/39 38/38/38 40/40/40
f 41/41/41 42/42/42 43/43/43
f 43/43/43 42/42/42 44/44/44
f 45/45/45 46/46/46 47/47/47
f 47/47/47 46/46/46 48/48/48
f 49/49/49 50/50/50 51/51/51
f 51/51/51 50/50/50 52/52/52
f 53/53/53 54/54/54 55/55/55
f 55/55/55 54/54/54 56/56/56
f 57/57/57 58/58/58 59/59/59
f 59/59/59 58/58/58 60/60/60
f 61/61/61 62/62/62 63/63/63
f 63/63/63 62/62/62 64/64/64
f 65/65/65 66/66/66 67/67/67
f 67/67/67 66/66/66 68/68/68
f 69/69/69 70/70/70 71/71/71
f 71/71/71 70/70/70 72/72/72
f 73/73/73 74/74/74 75/75/75
f 75/75/75 74/74/74 76/76/76
f 77/77/77 78/78/78 79/79/79
f 79/79/79 78/78/78 80/80/80
f 81/81/81 82/82/82 83/83/83
f 83/83/83 82/82/82 84/84/84
f 85/85/85 86/86/86 87/87/87
f 87/87/87 86/86/86 88/88/88
f 89/89/89 90/90/90 91/91/91
f 91/91/91 90/90/90 92/92/92
f 93/93/93 94/94/94 95/95/95
f 95/95/95 94/94/94 96/96/96
f 97/97/97 98/98/98 99/99/99
f 99/99/99 98/98/98 100/100/100
f 101/101/101 102/102/102 103/103/103
f 103/103/103 102/102/102 104/104/104
f 105/105/105 106/106/106 107/107/107
f 107/107/107 106/106/106 108/108/108
f 109/109/109 110/110/110 111/111/111
f 111/111/111 110/110/110 112/112/112
f 113/113/113 114/114/114 115/115/115
f 115/115/115 114/114/114 116/116/116
f 117/117/117 118/118/118 119/119/119
f 119/119/119 118/118/118 120/120/120
f 121/121/121 122/122/122 123/123/123
f 123/123/123 122/122/122 124/124/124
f 125/125/125 126/126/126 127/127/127
f 127/127/127 126/126/126 128/128/128
f 129/129/129 130/130/130 131/131/131
f 131/131/131 130/130/130 132/132/132
f 133/133/133 134/134/134 135/135/135
f 135/135/135 134/134/134 136/136/136
f 137/137/137 138/138/138 139/139/139
f 139/139/139 138/138/138 140/140/140
f 141/141/141 142/142/142 143/143/143
f 143/143/143 142/142/142 144/144/144
f 145/145/145 146/146/146 147/147/147
f 147/147/147 146/146/146 148/148/148
f 149/149/149 150/150/150 151/151/151
f 151/151/151 150/150/150 152/152/152
f 153/153/153 154/154/154 155/155/155
f 155/155/155 154/154/154 156/156/156
f 157/157/157 158/158/158 159/159/159
f 159/159/159 158/158/158 160/160/160
f 161/161/161 162/162/162 163/163/163
f 163/163/163 162/162/162 164/164/164
f 165/165/165 166/166/166 167/167/167
f 167/167/167 166/166/166 168/168/168
f 169/169/169 170/170/170 171/171/171
f 171/171/171 170/170/170 172/172/172
f 173/173/173 174/174/174 175/175/175
f 175/175/175 174/174/174 176/176/176
f 177/177/177 178/178/178 179/179/179
f 179/179/179 178/178/178 180/180/180
f 181/181/181 182/182/182 183/183/183
f 183/183/183 182/182/182 184/184/184
f 185/185/185 186/186/186 187/187/187
f 187/187/187 186/186/186 188/188/188
f 189/189/189 190/190/190 191/191/191
f 191/191/191 190/190/190 192/192/192
f 193/193/193 194/194/194 195/195/195
f 195/195/195 194/194/194 196/196/196
f 197/197/197 198/198/198 199/199/199
f 199/199/199 198/198/198 200/200/200
f 201/201/201 202/202/202 203/203/203
f 203/203/203 202/202/202 204/204/204
f 205/205/205 206/206/206 207/207/207
f 207/207/207 206/206/206 208/208/208
f 209/209/209 210/210/210 211/211/211
f 211/211/211 210/210/210 212/212/212
f 213/213/213 214/214/214 215/215/215
f 215/215/215 214/214/214 216/216/216
f 217/217/217 218/218/218 219/219/219
f 219/219/219 218/218/218 220/220/220
f 221/221/221 222/222/222 223/223/223
f 223/223/223 222/222/222 224/224/224
f 225/225/225 226/226/226 227/227/227
f 227/227/227 226/226/226 228/228/228
f 229/229/229 230/230/230 231/231/231
f 231/231/231 230/230/230 232/232/232
f 233/233/233 234/234/234 235/235/235
f 235/235/235 234/234/234 236/236/236
f 237/237/237 238/238/238 239/239/239
f 239/239/239 238/238/238 240/240/240
f 241/241/241 242/242/242 243/243/243
f 243/243/243 242/242/242 244/244/244
f 245/245/245 246/246/246 247/247/247
f 247/247/247 246/246/246 248/248/248
f 249/249/249 250/250/250 251/251/251
f 251/251/251 250/250/250 252/252/252
f 253/253/253 254/254/254 255/255/255
f 255/255/255 254/254/254 256/256/256
f 257/257/257 258/258/258 259/259/259
f 259/259/259 258/258/258 260/260/260
f 261/261/261 262/262/262 263/263/263
f 263/263/263 262/262/262 264/264/264
f 265/265/265 266/266/266 267/267/267
f 267/267/267 266/266/266 268/268/268
f 269/269/269 270/270/270 271/271/271
f 271/271/271 270/270/270 272/272/272
f 273/273/273 274/274/274 275/275/275
f 275/275/275 274/274/274 276/276/276
f 277/277/277 278/278/278 279/279/279
f 279/279/279 278/278/278 280/280/280
f 281/281/281 282/282/282 283/283/283
f 283/283/283 282/282/282 284/284/284
f 285/285/285 286/286/286 287/287/287
f 287/287/287 286/286/286 288/288/288
f 289/289/289 290/290/290 291/291/291
f 291/291/291 290/290/290 292/292/292
f 293/293/293 294/294/294 295/295/295
f 295/295/295 294/294/294 296/296/296
f 297/297/297 298/298/298 299/299/299
f 299/299/299 298/298/298 300/300/300
f 301/301/301 302/302/302 303/303/303
f 303/303/303 302/302/302 304/304/304
f 305/305/305 306/306/306 307/307/307
f 307/307/307 306/306/306 308/308/308
f 309/309/309 310/310/310 311/311/311
f 311/311/311 310/310/310 312/312/312
f 313/313/313 314/314/314 315/315/315
f 315/315/315 314/314/314 316/316/316
f 317/317/317 318/318/318 319/319/319
f 319/319/319 318/318/318 320/320/320
f 321/321/321 322/322/322 323/323/323
f 323/323/323 322/322/322 324/324/324
f 325/325/325 326/326/326 327/327/327
f 327/327/327 326/326/326 328/328/328
f 329/329/329 330/330/330 331/331/331
f 331/331/331 330/330/330 332/332/332
f 333/333/333 334/334/334 335/335/335
f 335/335/335 334/334/334 336/336/336
f 337/337/337 338/338/338 339/339/339
f 339/339/339 338/338/338 340/340/340
f 341/341/341 342/342/342 343/343/343
f 343/343/343 342/342/342 344/344/344
f 345/345/345 346/346/346 347/347/347
f 347/347/347 346/346/346 348/348/348
f 349/349/349 350/350/350 351/351/351
f 351/351/351 350/350/350 352/352/352
f 353/353/353 354/354/354 355/355/355
f 355/355/355 354/354/354 356/356/356
f 357/357/357 358/358/358 359/359/359
f 359/359/359 358/358/358 360/360/360
f 361/361/361 362/362/362 363/363/363
f 363/363/363 362/362/362 364/364/364
f 365/365/365 366/366/366 367/367/367
f 367/367/367 366/366/366 368/368/368
f 369/369/369 370/370/370 371/371/371
f 371/371/371 370/370/370 372/372/372
f 373/373/373 374/374/374 375/375/375
f 375/375/375 374/374/374 376/376/376
f 377/377/377 378/378/378 379/379/379
f 379/379/379 378/378/378 380/380/380
f 381/381/381 382/382/382 383/383/383
f 383/383/383 382/382/382 384/384/384
f 385/385/385 386/386/386 387/387/387
f 387/387/387 386/386/386 388/388/388
f 389/389/389 390/390/390 391/391/391
f 391/391/391 390/390/390 392/392/392
f 393/393/393 394/394/394 395/395/395
f 395/395/395 394/394/394 396/396/396
f 397/397/397 398/398/398 399/399/399
f 399/399/399 398/398/398 400/400/400
f 401/401/401 402/402/402 403/403/403
f 403/403/403 402/402/402 404/404/404
f 405/405/405 406/406/406 407/407/407
f 407/407/407 406/406/406 408/408/408
f 409/409/409 410/410/410 411/411/411
f 411/411/411 410/410/410 412/412/412
f 413/413/413 414/414/414 415/415/415
f 415/415/415 414/414/414 416/416/416
f 417/417/417 418/418/418 419/419/419
f 419/419/419 418/418/418 420/420/420
f 421/421/421 422/422/422 423/423/423
f 423/423/423 422/422/422 424/424/424
f 425/425/425 426/426/426 427/427/427
f 427/427/427 426/426/426 428/428/428
f 429/429/429 430/430/430 431/431/431
f 431/431/431 430/430/430 432/432/432
