mtllib vintage_pickup_steering_wheel.mtl
usemtl vintage_pickup_steering_wheel_mat
v -0.108328 0.263737 0.037663
v -0.108328 0.263737 -0.037662
v -0.108328 0.214027 0.037663
v -0.108328 0.214027 -0.037662
v 0.110669 0.263737 -0.037662
v 0.110669 0.263737 0.037663
v 0.110669 0.214027 -0.037662
v 0.110669 0.214027 0.037663
v 0.110669 0.263737 -0.037662
v -0.108328 0.263737 -0.037662
v 0.110669 0.263737 0.037663
v -0.108328 0.263737 0.037663
v 0.110669 0.214027 0.037663
v -0.108328 0.214027 0.037663
v 0.110669 0.214027 -0.037662
v -0.108328 0.214027 -0.037662
v 0.110669 0.263737 0.037663
v -0.108328 0.263737 0.037663
v 0.110669 0.214027 0.037663
v -0.108328 0.214027 0.037663
v -0.108328 0.263737 -0.037662
v 0.110669 0.263737 -0.037662
v -0.108328 0.214027 -0.037662
v 0.110669 0.214027 -0.037662
v 0.075444 0.228357 0.037624
v 0.075444 0.228357 -0.037623
v 0.230138 0.073663 0.037624
v 0.230138 0.073663 -0.037623
v 0.110559 0.263473 -0.037623
v 0.110559 0.263473 0.037624
v 0.265253 0.108779 -0.037623
v 0.265253 0.108779 0.037624
v 0.110559 0.263473 -0.037623
v 0.075444 0.228357 -0.037623
v 0.110559 0.263473 0.037624
v 0.075444 0.228357 0.037624
v 0.265253 0.108779 0.037624
v 0.230138 0.073663 0.037624
v 0.265253 0.108779 -0.037623
v 0.230138 0.073663 -0.037623
v 0.110559 0.263473 0.037624
v 0.075444 0.228357 0.037624
v 0.265253 0.108779 0.037624
v 0.230138 0.073663 0.037624
v 0.075444 0.228357 -0.037623
v 0.110559 0.263473 -0.037623
v 0.230138 0.073663 -0.037623
v 0.265253 0.108779 -0.037623
v 0.215809 0.108886 0.037663
v 0.215809 0.108886 -0.037662
v 0.215809 -0.110108 0.037663
v 0.215809 -0.110108 -0.037662
v 0.265517 0.108886 -0.037662
v 0.265517 0.108886 0.037663
v 0.265517 -0.110108 -0.037662
v 0.265517 -0.110108 0.037663
v 0.265517 0.108886 -0.037662
v 0.215809 0.108886 -0.037662
v 0.265517 0.108886 0.037663
v 0.215809 0.108886 0.037663
v 0.265517 -0.110108 0.037663
v 0.215809 -0.110108 0.037663
v 0.265517 -0.110108 -0.037662
v 0.215809 -0.110108 -0.037662
v 0.265517 0.108886 0.037663
v 0.215809 0.108886 0.037663
v 0.265517 -0.110108 0.037663
v 0.215809 -0.110108 0.037663
v 0.215809 0.108886 -0.037662
v 0.265517 0.108886 -0.037662
v 0.215809 -0.110108 -0.037662
v 0.265517 -0.110108 -0.037662
v 0.051941 0.070952 0.035496
v 0.051941 0.070952 -0.035495
v 0.021379 -0.002832 0.035496
v 0.021379 -0.002832 -0.035495
v 0.241346 -0.007502 -0.035495
v 0.241346 -0.007502 0.035496
v 0.210784 -0.081286 -0.035495
v 0.210784 -0.081286 0.035496
v 0.241346 -0.007502 -0.035495
v 0.051941 0.070952 -0.035495
v 0.241346 -0.007502 0.035496
v 0.051941 0.070952 0.035496
v 0.210784 -0.081286 0.035496
v 0.021379 -0.002832 0.035496
v 0.210784 -0.081286 -0.035495
v 0.021379 -0.002832 -0.035495
v 0.241346 -0.007502 0.035496
v 0.051941 0.070952 0.035496
v 0.210784 -0.081286 0.035496
v 0.021379 -0.002832 0.035496
v 0.051941 0.070952 -0.035495
v 0.241346 -0.007502 -0.035495
v 0.021379 -0.002832 -0.035495
v 0.210784 -0.081286 -0.035495
v -0.058231 0.071024 0.035530
v -0.058231 0.071024 -0.035529
v -0.058231 -0.040582 0.035530
v -0.058231 -0.040582 -0.035529
v 0.051991 0.071024 -0.035529
v 0.051991 0.071024 0.035530
v 0.051991 -0.040582 -0.035529
v 0.051991 -0.040582 0.035530
v 0.051991 0.071024 -0.035529
v -0.058231 0.071024 -0.035529
v 0.051991 0.071024 0.035530
v -0.058231 0.071024 0.035530
v 0.051991 -0.040582 0.035530
v -0.058231 -0.040582 0.035530
v 0.051991 -0.040582 -0.035529
v -0.058231 -0.040582 -0.035529
v 0.051991 0.071024 0.035530
v -0.058231 0.071024 0.035530
v 0.051991 -0.040582 0.035530
v -0.058231 -0.040582 0.035530
v -0.058231 0.071024 -0.035529
v 0.051991 0.071024 -0.035529
v -0.058231 -0.040582 -0.035529
v 0.051991 -0.040582 -0.035529
v -0.247579 -0.007502 0.035496
v -0.247579 -0.007502 -0.035495
v -0.217017 -0.081286 0.035496
v -0.217017 -0.081286 -0.035495
v -0.058174 0.070952 -0.035495
v -0.058174 0.070952 0.035496
v -0.027611 -0.002832 -0.035495
v -0.027611 -0.002832 0.035496
v -0.058174 0.070952 -0.035495
v -0.247579 -0.007502 -0.035495
v -0.058174 0.070952 0.035496
v -0.247579 -0.007502 0.035496
v -0.027611 -0.002832 0.035496
v -0.217017 -0.081286 0.035496
v -0.027611 -0.002832 -0.035495
v -0.217017 -0.081286 -0.035495
v -0.058174 0.070952 0.035496
v -0.247579 -0.007502 0.035496
v -0.027611 -0.002832 0.035496
v -0.217017 -0.081286 0.035496
v -0.247579 -0.007502 -0.035495
v -0.058174 0.070952 -0.035495
v -0.217017 -0.081286 -0.035495
v -0.027611 -0.002832 -0.035495
v -0.262914 0.108777 0.037624
v -0.262914 0.108777 -0.037623
v -0.227800 0.073663 0.037624
v -0.227800 0.073663 -0.037623
v -0.108219 0.263473 -0.037623
v -0.108219 0.263473 0.037624
v -0.073105 0.228359 -0.037623
v -0.073105 0.228359 0.037624
v -0.108219 0.263473 -0.037623
v -0.262914 0.108777 -0.037623
v -0.108219 0.263473 0.037624
v -0.262914 0.108777 0.037624
v -0.073105 0.228359 0.037624
v -0.227800 0.073663 0.037624
v -0.073105 0.228359 -0.037623
v -0.227800 0.073663 -0.037623
v -0.108219 0.263473 0.037624
v -0.262914 0.108777 0.037624
v -0.073105 0.228359 0.037624
v -0.227800 0.073663 0.037624
v -0.262914 0.108777 -0.037623
v -0.108219 0.263473 -0.037623
v -0.227800 0.073663 -0.037623
v -0.073105 0.228359 -0.037623
v -0.263176 0.108886 0.037663
v -0.263176 0.108886 -0.037662
v -0.263176 -0.110108 0.037663
v -0.263176 -0.110108 -0.037662
v -0.213469 0.108886 -0.037662
v -0.213469 0.108886 0.037663
v -0.213469 -0.110108 -0.037662
v -0.213469 -0.110108 0.037663
v -0.213469 0.108886 -0.037662
v -0.263176 0.108886 -0.037662
v -0.213469 0.108886 0.037663
v -0.263176 0.108886 0.037663
v -0.213469 -0.110108 0.037663
v -0.263176 -0.110108 0.037663
v -0.213469 -0.110108 -0.037662
v -0.263176 -0.110108 -0.037662
v -0.213469 0.108886 0.037663
v -0.263176 0.108886 0.037663
v -0.213469 -0.110108 0.037663
v -0.263176 -0.110108 0.037663
v -0.263176 0.108886 -0.037662
v -0.213469 0.108886 -0.037662
v -0.263176 -0.110108 -0.037662
v -0.213469 -0.110108 -0.037662
v -0.262914 -0.110001 0.037624
v -0.262914 -0.110001 -0.037623
v -0.108221 -0.264695 0.037624
v -0.108221 -0.264695 -0.037623
v -0.227799 -0.074885 -0.037623
v -0.227799 -0.074885 0.037624
v -0.073105 -0.229579 -0.037623
v -0.073105 -0.229579 0.037624
v -0.227799 -0.074885 -0.037623
v -0.262914 -0.110001 -0.037623
v -0.227799 -0.074885 0.037624
v -0.262914 -0.110001 0.037624
v -0.073105 -0.229579 0.037624
v -0.108221 -0.264695 0.037624
v -0.073105 -0.229579 -0.037623
v -0.108221 -0.264695 -0.037623
v -0.227799 -0.074885 0.037624
v -0.262914 -0.110001 0.037624
v -0.073105 -0.229579 0.037624
v -0.108221 -0.264695 0.037624
v -0.262914 -0.110001 -0.037623
v -0.227799 -0.074885 -0.037623
v -0.108221 -0.264695 -0.037623
v -0.073105 -0.229579 -0.037623
v -0.108328 -0.215249 0.037663
v -0.108328 -0.215249 -0.037662
v -0.108328 -0.264958 0.037663
v -0.108328 -0.264958 -0.037662
v 0.110669 -0.215249 -0.037662
v 0.110669 -0.215249 0.037663
v 0.110669 -0.264958 -0.037662
v 0.110669 -0.264958 0.037663
v 0.110669 -0.215249 -0.037662
v -0.108328 -0.215249 -0.037662
v 0.110669 -0.215249 0.037663
v -0.108328 -0.215249 0.037663
v 0.110669 -0.264958 0.037663
v -0.108328 -0.264958 0.037663
v 0.110669 -0.264958 -0.037662
v -0.108328 -0.264958 -0.037662
v 0.110669 -0.215249 0.037663
v -0.108328 -0.215249 0.037663
v 0.110669 -0.264958 0.037663
v -0.108328 -0.264958 0.037663
v -0.108328 -0.215249 -0.037662
v 0.110669 -0.215249 -0.037662
v -0.108328 -0.264958 -0.037662
v 0.110669 -0.264958 -0.037662
v 0.075442 -0.229579 0.037624
v 0.075442 -0.229579 -0.037623
v 0.110558 -0.264695 0.037624
v 0.110558 -0.264695 -0.037623
v 0.230138 -0.074884 -0.037623
v 0.230138 -0.074884 0.037624
v 0.265253 -0.109999 -0.037623
v 0.265253 -0.109999 0.037624
v 0.230138 -0.074884 -0.037623
v 0.075442 -0.229579 -0.037623
v 0.230138 -0.074884 0.037624
v 0.075442 -0.229579 0.037624
v 0.265253 -0.109999 0.037624
v 0.110558 -0.264695 0.037624
v 0.265253 -0.109999 -0.037623
v 0.110558 -0.264695 -0.037623
v 0.230138 -0.074884 0.037624
v 0.075442 -0.229579 0.037624
v 0.265253 -0.109999 0.037624
v 0.110558 -0.264695 0.037624
v 0.075442 -0.229579 -0.037623
v 0.230138 -0.074884 -0.037623
v 0.110558 -0.264695 -0.037623
v 0.265253 -0.109999 -0.037623
vt 0.820312 0.250000
vt 0.821289 0.250000
vt 0.820312 0.250977
vt 0.821289 0.250977
vt 0.750000 0.320312
vt 0.750977 0.320312
vt 0.750000 0.321289
vt 0.750977 0.321289
vt 0.792969 0.312500
vt 0.795898 0.312500
vt 0.792969 0.313477
vt 0.795898 0.313477
vt 0.812500 0.293945
vt 0.815430 0.293945
vt 0.812500 0.292969
vt 0.815430 0.292969
vt 0.789062 0.312500
vt 0.791992 0.312500
vt 0.789062 0.313477
vt 0.791992 0.313477
vt 0.812500 0.289062
vt 0.815430 0.289062
vt 0.812500 0.290039
vt 0.815430 0.290039
vt 0.812500 0.300781
vt 0.813477 0.300781
vt 0.812500 0.303711
vt 0.813477 0.303711
vt 0.812500 0.296875
vt 0.813477 0.296875
vt 0.812500 0.299805
vt 0.813477 0.299805
vt 0.753906 0.320312
vt 0.754883 0.320312
vt 0.753906 0.321289
vt 0.754883 0.321289
vt 0.820312 0.254883
vt 0.821289 0.254883
vt 0.820312 0.253906
vt 0.821289 0.253906
vt 0.796875 0.312500
vt 0.797852 0.312500
vt 0.796875 0.315430
vt 0.797852 0.315430
vt 0.800781 0.312500
vt 0.801758 0.312500
vt 0.800781 0.315430
vt 0.801758 0.315430
vt 0.812500 0.308594
vt 0.813477 0.308594
vt 0.812500 0.311523
vt 0.813477 0.311523
vt 0.812500 0.304688
vt 0.813477 0.304688
vt 0.812500 0.307617
vt 0.813477 0.307617
vt 0.757812 0.320312
vt 0.758789 0.320312
vt 0.757812 0.321289
vt 0.758789 0.321289
vt 0.820312 0.258789
vt 0.821289 0.258789
vt 0.820312 0.257812
vt 0.821289 0.257812
vt 0.804688 0.312500
vt 0.805664 0.312500
vt 0.804688 0.315430
vt 0.805664 0.315430
vt 0.808594 0.312500
vt 0.809570 0.312500
vt 0.808594 0.315430
vt 0.809570 0.315430
vt 0.820312 0.265625
vt 0.821289 0.265625
vt 0.820312 0.266602
vt 0.821289 0.266602
vt 0.765625 0.320312
vt 0.766602 0.320312
vt 0.765625 0.321289
vt 0.766602 0.321289
vt 0.816406 0.007812
vt 0.819336 0.007812
vt 0.816406 0.008789
vt 0.819336 0.008789
vt 0.511719 0.317383
vt 0.514648 0.317383
vt 0.511719 0.316406
vt 0.514648 0.316406
vt 0.816406 0.003906
vt 0.819336 0.003906
vt 0.816406 0.004883
vt 0.819336 0.004883
vt 0.507812 0.316406
vt 0.510742 0.316406
vt 0.507812 0.317383
vt 0.510742 0.317383
vt 0.820312 0.273438
vt 0.821289 0.273438
vt 0.820312 0.274414
vt 0.821289 0.274414
vt 0.820312 0.269531
vt 0.821289 0.269531
vt 0.820312 0.270508
vt 0.821289 0.270508
vt 0.777344 0.320312
vt 0.778320 0.320312
vt 0.777344 0.321289
vt 0.778320 0.321289
vt 0.820312 0.278320
vt 0.821289 0.278320
vt 0.820312 0.277344
vt 0.821289 0.277344
vt 0.769531 0.320312
vt 0.770508 0.320312
vt 0.769531 0.321289
vt 0.770508 0.321289
vt 0.773438 0.320312
vt 0.774414 0.320312
vt 0.773438 0.321289
vt 0.774414 0.321289
vt 0.820312 0.261719
vt 0.821289 0.261719
vt 0.820312 0.262695
vt 0.821289 0.262695
vt 0.761719 0.320312
vt 0.762695 0.320312
vt 0.761719 0.321289
vt 0.762695 0.321289
vt 0.816406 0.000000
vt 0.819336 0.000000
vt 0.816406 0.000977
vt 0.819336 0.000977
vt 0.503906 0.317383
vt 0.506836 0.317383
vt 0.503906 0.316406
vt 0.506836 0.316406
vt 0.812500 0.312500
vt 0.815430 0.312500
vt 0.812500 0.313477
vt 0.815430 0.313477
vt 0.500000 0.316406
vt 0.502930 0.316406
vt 0.500000 0.317383
vt 0.502930 0.317383
vt 0.820312 0.246094
vt 0.821289 0.246094
vt 0.820312 0.247070
vt 0.821289 0.247070
vt 0.746094 0.320312
vt 0.747070 0.320312
vt 0.746094 0.321289
vt 0.747070 0.321289
vt 0.785156 0.312500
vt 0.788086 0.312500
vt 0.785156 0.313477
vt 0.788086 0.313477
vt 0.812500 0.286133
vt 0.815430 0.286133
vt 0.812500 0.285156
vt 0.815430 0.285156
vt 0.781250 0.312500
vt 0.784180 0.312500
vt 0.781250 0.313477
vt 0.784180 0.313477
vt 0.812500 0.281250
vt 0.815430 0.281250
vt 0.812500 0.282227
vt 0.815430 0.282227
vt 0.812500 0.277344
vt 0.813477 0.277344
vt 0.812500 0.280273
vt 0.813477 0.280273
vt 0.812500 0.273438
vt 0.813477 0.273438
vt 0.812500 0.276367
vt 0.813477 0.276367
vt 0.742188 0.320312
vt 0.743164 0.320312
vt 0.742188 0.321289
vt 0.743164 0.321289
vt 0.820312 0.243164
vt 0.821289 0.243164
vt 0.820312 0.242188
vt 0.821289 0.242188
vt 0.773438 0.312500
vt 0.774414 0.312500
vt 0.773438 0.315430
vt 0.774414 0.315430
vt 0.777344 0.312500
vt 0.778320 0.312500
vt 0.777344 0.315430
vt 0.778320 0.315430
vt 0.812500 0.269531
vt 0.813477 0.269531
vt 0.812500 0.272461
vt 0.813477 0.272461
vt 0.812500 0.265625
vt 0.813477 0.265625
vt 0.812500 0.268555
vt 0.813477 0.268555
vt 0.738281 0.320312
vt 0.739258 0.320312
vt 0.738281 0.321289
vt 0.739258 0.321289
vt 0.820312 0.239258
vt 0.821289 0.239258
vt 0.820312 0.238281
vt 0.821289 0.238281
vt 0.765625 0.312500
vt 0.766602 0.312500
vt 0.765625 0.315430
vt 0.766602 0.315430
vt 0.769531 0.312500
vt 0.770508 0.312500
vt 0.769531 0.315430
vt 0.770508 0.315430
vt 0.820312 0.234375
vt 0.821289 0.234375
vt 0.820312 0.235352
vt 0.821289 0.235352
vt 0.734375 0.320312
vt 0.735352 0.320312
vt 0.734375 0.321289
vt 0.735352 0.321289
vt 0.761719 0.312500
vt 0.764648 0.312500
vt 0.761719 0.313477
vt 0.764648 0.313477
vt 0.812500 0.262695
vt 0.815430 0.262695
vt 0.812500 0.261719
vt 0.815430 0.261719
vt 0.757812 0.312500
vt 0.760742 0.312500
vt 0.757812 0.313477
vt 0.760742 0.313477
vt 0.812500 0.257812
vt 0.815430 0.257812
vt 0.812500 0.258789
vt 0.815430 0.258789
vt 0.820312 0.230469
vt 0.821289 0.230469
vt 0.820312 0.231445
vt 0.821289 0.231445
vt 0.730469 0.320312
vt 0.731445 0.320312
vt 0.730469 0.321289
vt 0.731445 0.321289
vt 0.753906 0.312500
vt 0.756836 0.312500
vt 0.753906 0.313477
vt 0.756836 0.313477
vt 0.812500 0.254883
vt 0.815430 0.254883
vt 0.812500 0.253906
vt 0.815430 0.253906
vt 0.750000 0.312500
vt 0.752930 0.312500
vt 0.750000 0.313477
vt 0.752930 0.313477
vt 0.812500 0.250000
vt 0.815430 0.250000
vt 0.812500 0.250977
vt 0.815430 0.250977
vn -1.000000 0.000000 0.000000
vn -1.000000 0.000000 0.000000
vn -1.000000 0.000000 0.000000
vn -1.000000 0.000000 0.000000
vn 1.000000 0.000000 0.000000
vn 1.000000 0.000000 0.000000
vn 1.000000 0.000000 0.000000
vn 1.000000 0.000000 0.000000
vn -0.000000 1.000000 0.000000
vn -0.000000 1.000000 0.000000
vn -0.000000 1.000000 0.000000
vn -0.000000 1.000000 0.000000
vn -0.000000 -1.000000 0.000000
vn -0.000000 -1.000000 0.000000
vn -0.000000 -1.000000 0.000000
vn -0.000000 -1.000000 0.000000
vn -0.000000 0.000000 1.000000
vn -0.000000 0.000000 1.000000
vn -0.000000 0.000000 1.000000
vn -0.000000 0.000000 1.000000
vn -0.000000 0.000000 -1.000000
vn -0.000000 0.000000 -1.000000
vn -0.000000 0.000000 -1.000000
vn -0.000000 0.000000 -1.000000
vn -0.707107 -0.707107 0.000000
vn -0.707107 -0.707107 0.000000
vn -0.707107 -0.707107 0.000000
vn -0.707107 -0.707107 0.000000
vn 0.707107 0.707107 0.000000
vn 0.707107 0.707107 0.000000
vn 0.707107 0.707107 0.000000
vn 0.707107 0.707107 0.000000
vn -0.707107 0.707107 0.000000
vn -0.707107 0.707107 0.000000
vn -0.707107 0.707107 0.000000
vn -0.707107 0.707107 0.000000
vn 0.707107 -0.707107 0.000000
vn 0.707107 -0.707107 0.000000
vn 0.707107 -0.707107 0.000000
vn 0.707107 -0.707107 0.000000
vn -0.000000 0.000000 1.000000
vn -0.000000 0.000000 1.000000
vn -0.000000 0.000000 1.000000
vn -0.000000 0.000000 1.000000
vn -0.000000 0.000000 -1.000000
vn -0.000000 0.000000 -1.000000
vn -0.000000 0.000000 -1.000000
vn -0.000000 0.000000 -1.000000
vn -1.000000 0.000000 0.000000
vn -1.000000 0.000000 0.000000
vn -1.000000 0.000000 0.000000
vn -1.000000 0.000000 0.000000
vn 1.000000 0.000000 0.000000
vn 1.000000 0.000000 0.000000
vn 1.000000 0.000000 0.000000
vn 1.000000 0.000000 0.000000
vn -0.000000 1.000000 0.000000
vn -0.000000 1.000000 0.000000
vn -0.000000 1.000000 0.000000
vn -0.000000 1.000000 0.000000
vn -0.000000 -1.000000 0.000000
vn -0.000000 -1.000000 0.000000
vn -0.000000 -1.000000 0.000000
vn -0.000000 -1.000000 0.000000
vn -0.000000 0.000000 1.000000
vn -0.000000 0.000000 1.000000
vn -0.000000 0.000000 1.000000
vn -0.000000 0.000000 1.000000
vn -0.000000 0.000000 -1.000000
vn -0.000000 0.000000 -1.000000
vn -0.000000 0.000000 -1.000000
vn -0.000000 0.000000 -1.000000
vn -0.923880 0.382683 0.000000
vn -0.923880 0.382683 0.000000
vn -0.923880 0.382683 0.000000
vn -0.923880 0.382683 0.000000
vn 0.923880 -0.382683 0.000000
vn 0.923880 -0.382683 0.000000
vn 0.923880 -0.382683 0.000000
vn 0.923880 -0.382683 0.000000
vn 0.382683 0.923880 0.000000
vn 0.382683 0.923880 0.000000
vn 0.382683 0.923880 0.000000
vn 0.382683 0.923880 0.000000
vn -0.382683 -0.923880 0.000000
vn -0.382683 -0.923880 0.000000
vn -0.382683 -0.923880 0.000000
vn -0.382683 -0.923880 0.000000
vn -0.000000 0.000000 1.000000
vn -0.000000 0.000000 1.000000
vn -0.000000 0.000000 1.000000
vn -0.000000 0.000000 1.000000
vn -0.000000 0.000000 -1.000000
vn -0.000000 0.000000 -1.000000
vn -0.000000 0.000000 -1.000000
vn -0.000000 0.000000 -1.000000
vn -1.000000 0.000000 0.000000
vn -1.000000 0.000000 0.000000
vn -1.000000 0.000000 0.000000
vn -1.000000 0.000000 0.000000
vn 1.000000 0.000000 0.000000
vn 1.000000 0.000000 0.000000
vn 1.000000 0.000000 0.000000
vn 1.000000 0.000000 0.000000
vn -0.000000 1.000000 0.000000
vn -0.000000 1.000000 0.000000
vn -0.000000 1.000000 0.000000
vn -0.000000 1.000000 0.000000
vn -0.000000 -1.000000 0.000000
vn -0.000000 -1.000000 0.000000
vn -0.000000 -1.000000 0.000000
vn -0.000000 -1.000000 0.000000
vn -0.000000 0.000000 1.000000
vn -0.000000 0.000000 1.000000
vn -0.000000 0.000000 1.000000
vn -0.000000 0.000000 1.000000
vn -0.000000 0.000000 -1.000000
vn -0.000000 0.000000 -1.000000
vn -0.000000 0.000000 -1.000000
vn -0.000000 0.000000 -1.000000
vn -0.923880 -0.382683 0.000000
vn -0.923880 -0.382683 0.000000
vn -0.923880 -0.382683 0.000000
vn -0.923880 -0.382683 0.000000
vn 0.923880 0.382683 0.000000
vn 0.923880 0.382683 0.000000
vn 0.923880 0.382683 0.000000
vn 0.923880 0.382683 0.000000
vn -0.382683 0.923880 0.000000
vn -0.382683 0.923880 0.000000
vn -0.382683 0.923880 0.000000
vn -0.382683 0.923880 0.000000
vn 0.382683 -0.923880 0.000000
vn 0.382683 -0.923880 0.000000
vn 0.382683 -0.923880 0.000000
vn 0.382683 -0.923880 0.000000
vn -0.000000 0.000000 1.000000
vn -0.000000 0.000000 1.000000
vn -0.000000 0.000000 1.000000
vn -0.000000 0.000000 1.000000
vn -0.000000 0.000000 -1.000000
vn -0.000000 0.000000 -1.000000
vn -0.000000 0.000000 -1.000000
vn -0.000000 0.000000 -1.000000
vn -0.707107 -0.707107 0.000000
vn -0.707107 -0.707107 0.000000
vn -0.707107 -0.707107 0.000000
vn -0.707107 -0.707107 0.000000
vn 0.707107 0.707107 0.000000
vn 0.707107 0.707107 0.000000
vn 0.707107 0.707107 0.000000
vn 0.707107 0.707107 0.000000
vn -0.707107 0.707107 0.000000
vn -0.707107 0.707107 0.000000
vn -0.707107 0.707107 0.000000
vn -0.707107 0.707107 0.000000
vn 0.707107 -0.707107 0.000000
vn 0.707107 -0.707107 0.000000
vn 0.707107 -0.707107 0.000000
vn 0.707107 -0.707107 0.000000
vn -0.000000 0.000000 1.000000
vn -0.000000 0.000000 1.000000
vn -0.000000 0.000000 1.000000
vn -0.000000 0.000000 1.000000
vn -0.000000 0.000000 -1.000000
vn -0.000000 0.000000 -1.000000
vn -0.000000 0.000000 -1.000000
vn -0.000000 0.000000 -1.000000
vn -1.000000 0.000000 0.000000
vn -1.000000 0.000000 0.000000
vn -1.000000 0.000000 0.000000
vn -1.000000 0.000000 0.000000
vn 1.000000 0.000000 0.000000
vn 1.000000 0.000000 0.000000
vn 1.000000 0.000000 0.000000
vn 1.000000 0.000000 0.000000
vn -0.000000 1.000000 0.000000
vn -0.000000 1.000000 0.000000
vn -0.000000 1.000000 0.000000
vn -0.000000 1.000000 0.000000
vn -0.000000 -1.000000 0.000000
vn -0.000000 -1.000000 0.000000
vn -0.000000 -1.000000 0.000000
vn -0.000000 -1.000000 0.000000
vn -0.000000 0.000000 1.000000
vn -0.000000 0.000000 1.000000
vn -0.000000 0.000000 1.000000
vn -0.000000 0.000000 1.000000
vn -0.000000 0.000000 -1.000000
vn -0.000000 0.000000 -1.000000
vn -0.000000 0.000000 -1.000000
vn -0.000000 0.000000 -1.000000
vn -0.707107 -0.707107 0.000000
vn -0.707107 -0.707107 0.000000
vn -0.707107 -0.707107 0.000000
vn -0.707107 -0.707107 0.000000
vn 0.707107 0.707107 0.000000
vn 0.707107 0.707107 0.000000
vn 0.707107 0.707107 0.000000
vn 0.707107 0.707107 0.000000
vn -0.707107 0.707107 0.000000
vn -0.707107 0.707107 0.000000
vn -0.707107 0.707107 0.000000
vn -0.707107 0.707107 0.000000
vn 0.707107 -0.707107 0.000000
vn 0.707107 -0.707107 0.000000
vn 0.707107 -0.707107 0.000000
vn 0.707107 -0.707107 0.000000
vn -0.000000 0.000000 1.000000
vn -0.000000 0.000000 1.000000
vn -0.000000 0.000000 1.000000
vn -0.000000 0.000000 1.000000
vn -0.000000 0.000000 -1.000000
vn -0.000000 0.000000 -1.000000
vn -0.000000 0.000000 -1.000000
vn -0.000000 0.000000 -1.000000
vn -1.000000 0.000000 0.000000
vn -1.000000 0.000000 0.000000
vn -1.000000 0.000000 0.000000
vn -1.000000 0.000000 0.000000
vn 1.000000 0.000000 0.000000
vn 1.000000 0.000000 0.000000
vn 1.000000 0.000000 0.000000
vn 1.000000 0.000000 0.000000
vn -0.000000 1.000000 0.000000
vn -0.000000 1.000000 0.000000
vn -0.000000 1.000000 0.000000
vn -0.000000 1.000000 0.000000
vn -0.000000 -1.000000 0.000000
vn -0.000000 -1.000000 0.000000
vn -0.000000 -1.000000 0.000000
vn -0.000000 -1.000000 0.000000
vn -0.000000 0.000000 1.000000
vn -0.000000 0.000000 1.000000
vn -0.000000 0.000000 1.000000
vn -0.000000 0.000000 1.000000
vn -0.000000 0.000000 -1.000000
vn -0.000000 0.000000 -1.000000
vn -0.000000 0.000000 -1.000000
vn -0.000000 0.000000 -1.000000
vn -0.707107 -0.707107 0.000000
vn -0.707107 -0.707107 0.000000
vn -0.707107 -0.707107 0.000000
vn -0.707107 -0.707107 0.000000
vn 0.707107 0.707107 0.000000
vn 0.707107 0.707107 0.000000
vn 0.707107 0.707107 0.000000
vn 0.707107 0.707107 0.000000
vn -0.707107 0.707107 0.000000
vn -0.707107 0.707107 0.000000
vn -0.707107 0.707107 0.000000
vn -0.707107 0.707107 0.000000
vn 0.707107 -0.707107 0.000000
vn 0.707107 -0.707107 0.000000
vn 0.707107 -0.707107 0.000000
vn 0.707107 -0.707107 0.000000
vn -0.000000 0.000000 1.000000
vn -0.000000 0.000000 1.000000
vn -0.000000 0.000000 1.000000
vn -0.000000 0.000000 1.000000
vn -0.000000 0.000000 -1.000000
vn -0.000000 0.000000 -1.000000
vn -0.000000 0.000000 -1.000000
vn -0.000000 0.000000 -1.000000
f 1/1/1 2/2/2 3/3/3
f 3/3/3 2/2/2 4/4/4
f 5/5/5 6/6/6 7/7/7
f 7/7/7 6/6/6 8/8/8
f 9/9/9 10/10/10 11/11/11
f 11/11/11 10/10/10 12/12/12
f 13/13/13 14/14/14 15/15/15
f 15/15/15 14/14/14 16/16/16
f 17/17/17 18/18/18 19/19/19
f 19/19/19 18/18/18 20/20/20
f 21/21/21 22/22/22 23/23/23
f 23/23/23 22/22/22 24/24/24
f 25/25/25 26/26/26 27/27/27
f 27/27/27 26/26/26 28/28/28
f 29/29/29 30/30/30 31/31/31
f 31/31/31 30/30/30 32/32/32
f 33/33/33 34/34/34 35/35/35
f 35/35/35 34/34/34 36/36/36
f 37/37/37 38/38/38 39/39/39
f 39/39/39 38/38/38 40/40/40
f 41/41/41 42/42/42 43/43/43
f 43/43/43 42/42/42 44/44/44
f 45/45/45 46/46/46 47/47/47
f 47/47/47 46/46/46 48/48/48
f 49/49/49 50/50/50 51/51/51
f 51/51/51 50/50/50 52/52/52
f 53/53/53 54/54/54 55/55/55
f 55/55/55 54/54/54 56/56/56
f 57/57/57 58/58/58 59/59/59
f 59/59/59 58/58/58 60/60/60
f 61/61/61 62/62/62 63/63/63
f 63/63/63 62/62/62 64/64/64
f 65/65/65 66/66/66 67/67/67
f 67/67/67 66/66/66 68/68/68
f 69/69/69 70/70/70 71/71/71
f 71/71/71 70/70/70 72/72/72
f 73/73/73 74/74/74 75/75/75
f 75/75/75 74/74/74 76/76/76
f 77/77/77 78/78/78 79/79/79
f 79/79/79 78/78/78 80/80/80
f 81/81/81 82/82/82 83/83/83
f 83/83/83 82/82/82 84/84/84
f 85/85/85 86/86/86 87/87/87
f 87/87/87 86/86/86 88/88/88
f 89/89/89 90/90/90 91/91/91
f 91/91/91 90/90/90 92/92/92
f 93/93/93 94/94/94 95/95/95
f 95/95/95 94/94/94 96/96/96
f 97/97/97 98/98/98 99/99/99
f 99/99/99 98/98/98 100/100/100
f 101/101/101 102/102/102 103/103/103
f 103/103/103 102/102/102 104/104/104
f 105/105/105 106/106/106 107/107/107
f 107/107/107 106/106/106 108/108/108
f 109/109/109 110/110/110 111/111/111
f 111/111/111 110/110/110 112/112/112
f 113/113/113 114/114/114 115/115/115
f 115/115/115 114/114/114 116/116/116
f 117/117/117 118/118/118 119/119/119
f 119/119/119 118/118/118 120/120/120
f 121/121/121 122/122/122 123/123/123
f 123/123/123 122/122/122 124/124/124
f 125/125/125 126/126/126 127/127/127
f 127/127/127 126/126/126 128/128/128
f 129/129/129 130/130/130 131/131/131
f 131/131/131 130/130/130 132/132/132
f 133/133/133 134/134/134 135/135/135
f 135/135/135 134/134/134 136/136/136
f 137/137/137 138/138/138 139/139/139
f 139/139/139 138/138/138 140/140/140
f 141/141/141 142/142/142 143/143/143
f 143/143/143 142/142/142 144/144/144
f 145/145/145 146/146/146 147/147/147
f 147/147/147 146/146/146 148/148/148
f 149/149/149 150/150/150 151/151/151
f 151/151/151 150/150/150 152/152/152
f 153/153/153 154/154/154 155/155/155
f 155/155/155 154/154/154 156/156/156
f 157/157/157 158/158/158 159/159/159
f 159/159/159 158/158/158 160/160/160
f 161/161/161 162/162/162 163/163/163
f 163/163/163 162/162/162 164/164/164
f 165/165/165 166/166/166 167/167/167
f 167/167/167 166/166/166 168/168/168
f 169/169/169 170/170/170 171/171/171
f 171/171/171 170/170/170 172/172/172
f 173/173/173 174/174/174 175/175/175
f 175/175/175 174/174/174 176/176/176
f 177/177/177 178/178/178 179/179/179
f 179/179/179 178/178/178 180/180/180
f 181/181/181 182/182/182 183/183/183
f 183/183/183 182/182/182 184/184/184
f 185/185/185 186/186/186 187/187/187
f 187/187/187 186/186/186 188/188/188
f 189/189/189 190/190/190 191/191/191
f 191/191/191 190/190/190 192/192/192
f 193/193/193 194/194/194 195/195/195
f 195/195/195 194/194/194 196/196/196
f 197/197/197 198/198/198 199/199/199
f 199/199/199 198/198/198 200/200/200
f 201/201/201 202/202/202 203/203/203
f 203/203/203 202/202/202 204/204/204
f 205/205/205 206/206/206 207/207/207
f 207/207/207 206/206/206 208/208/208
f 209/209/209 210/210/210 211/211/211
f 211/211/211 210/210/210 212/212/212
f 213/213/213 214/214/214 215/215/215
f 215/215/215 214/214/214 216/216/216
f 217/217/217 218/218/218 219/219/219
f 219/219/219 218/218/218 220/220/220
f 221/221/221 222/222/222 223/223/223
f 223/223/223 222/222/222 224/224/224
f 225/225/225 226/226/226 227/227/227
f 227/227/227 226/226/226 228/228/228
f 229/229/229 230/230/230 231/231/231
f 231/231/231 230/230/230 232/232/232
f 233/233/233 234/234/234 235/235/235
f 235/235/235 234/234/234 236/236/236
f 237/237/237 238/238/238 239/239/239
f 239/239/239 238/238/238 240/240/240
f 241/241/241 242/242/242 243/243/243
f 243/243/243 242/242/242 244/244/244
f 245/245/245 246/246/246 247/247/247
f 247/247/247 246/246/246 248/248/248
f 249/249/249 250/250/250 251/251/251
f 251/251/251 250/250/250 252/252/252
f 253/253/253 254/254/254 255/255/255
f 255/255/255 254/254/254 256/256/256
f 257/257/257 258/258/258 259/259/259
f 259/259/259 258/258/258 260/260/260
f 261/261/261 262/262/262 263/263/263
f 263/263/263 262/262/262 264/264/264
