# Exported perfectly flattened blue_retro_car_steering_wheel
mtllib blue_retro_car_steering_wheel.mtl
usemtl blue_retro_car_steering_wheel_mat
v 0.303738 -0.000000 -0.030374
v 0.214776 0.214776 -0.030373
v 0.214776 0.214775 0.030373
v 0.303738 0.000000 0.030374
v 0.242991 -0.000000 -0.030374
v 0.214776 0.214776 -0.030373
v 0.303738 -0.000000 -0.030374
v 0.214776 -0.214776 -0.030375
v 0.303738 -0.000000 -0.030374
v 0.303738 0.000000 0.030374
v 0.171821 -0.171820 -0.030373
v 0.242991 -0.000000 -0.030374
v 0.303738 -0.000000 -0.030374
v 0.214776 -0.214776 -0.030375
v 0.171821 0.171821 -0.030374
v 0.214776 0.214776 -0.030373
v 0.000000 0.303738 -0.030373
v 0.000000 0.303738 0.030374
v 0.214776 0.214775 0.030373
v 0.171821 0.171821 -0.030374
v 0.000000 0.303738 -0.030373
v 0.214776 0.214776 -0.030373
v 0.303738 0.000000 0.030374
v 0.214776 0.214775 0.030373
v 0.171821 0.171821 0.030374
v 0.214776 0.214775 0.030373
v 0.000000 0.303738 0.030374
v 0.000000 0.242991 0.030374
v 0.171821 0.171821 0.030374
v 0.242991 0.000000 0.030374
v 0.214776 -0.214776 0.030373
v 0.214776 -0.214776 0.030373
v 0.303738 0.000000 0.030374
v 0.242991 0.000000 0.030374
v 0.242991 0.000000 0.030374
v 0.171821 0.171821 -0.030374
v 0.242991 -0.000000 -0.030374
v 0.171821 -0.171820 0.030373
v 0.242991 0.000000 0.030374
v 0.242991 -0.000000 -0.030374
v 0.171821 -0.171820 -0.030373
v 0.000000 -0.303738 -0.030374
v 0.214776 -0.214776 -0.030375
v 0.214776 -0.214776 0.030373
v 0.000000 -0.242991 -0.030375
v 0.171821 -0.171820 -0.030373
v 0.214776 -0.214776 -0.030375
v 0.000000 -0.303738 -0.030374
v 0.000000 -0.242992 0.030374
v 0.171821 -0.171820 0.030373
v 0.171821 -0.171820 -0.030373
v 0.000000 -0.242991 -0.030375
v 0.171821 0.171821 0.030374
v 0.171821 0.171821 0.030374
v 0.000000 0.242991 -0.030374
v 0.171821 0.171821 -0.030374
v 0.000000 0.242991 -0.030374
v 0.000000 0.303738 -0.030373
v -0.214776 0.214776 -0.030373
v -0.214776 0.214775 0.030373
v 0.000000 0.303738 0.030374
v 0.000000 0.242991 -0.030374
v -0.214776 0.214776 -0.030373
v 0.000000 0.303738 -0.030373
v 0.000000 0.303738 0.030374
v -0.214776 0.214775 0.030373
v -0.171821 0.171821 0.030374
v 0.000000 0.242991 0.030374
v 0.000000 0.242991 0.030374
v 0.000000 0.242991 0.030374
v -0.171821 0.171821 0.030374
v -0.171821 0.171821 -0.030374
v 0.000000 0.242991 -0.030374
v 0.171821 -0.171820 0.030373
v 0.000000 -0.303738 0.030374
v 0.000000 -0.303738 0.030374
v 0.214776 -0.214776 0.030373
v 0.171821 -0.171820 0.030373
v 0.000000 -0.242992 0.030374
v -0.214776 -0.214776 -0.030375
v 0.000000 -0.303738 -0.030374
v 0.000000 -0.303738 0.030374
v -0.171821 -0.171820 -0.030373
v 0.000000 -0.242991 -0.030375
v 0.000000 -0.303738 -0.030374
v -0.214776 -0.214776 -0.030375
v -0.171821 -0.171820 0.030373
v 0.000000 -0.242992 0.030374
v 0.000000 -0.242991 -0.030375
v -0.171821 -0.171820 -0.030373
v -0.214776 -0.214776 0.030373
v 0.000000 -0.303738 0.030374
v 0.000000 -0.242992 0.030374
v -0.171821 -0.171820 0.030373
v -0.171821 0.171821 -0.030374
v -0.214776 0.214776 -0.030373
v -0.303738 -0.000000 -0.030374
v -0.303738 0.000000 0.030374
v -0.214776 0.214775 0.030373
v -0.171821 0.171821 -0.030374
v -0.303738 -0.000000 -0.030374
v -0.214776 0.214776 -0.030373
v -0.214776 0.214775 0.030373
v -0.303738 0.000000 0.030374
v -0.242991 0.000000 0.030374
v -0.171821 0.171821 0.030374
v -0.171821 0.171821 0.030374
v -0.242991 0.000000 0.030374
v -0.242991 -0.000000 -0.030374
v -0.171821 0.171821 -0.030374
v -0.242991 -0.000000 -0.030374
v -0.214776 -0.214776 0.030373
v -0.303738 -0.000000 -0.030374
v -0.214776 -0.214776 -0.030375
v -0.214776 -0.214776 0.030373
v -0.242991 -0.000000 -0.030374
v -0.171821 -0.171820 -0.030373
v -0.214776 -0.214776 -0.030375
v -0.303738 -0.000000 -0.030374
v -0.242991 0.000000 0.030374
v -0.171821 -0.171820 0.030373
v -0.171821 -0.171820 -0.030373
v -0.242991 -0.000000 -0.030374
v -0.303738 0.000000 0.030374
v -0.214776 -0.214776 0.030373
v -0.171821 -0.171820 0.030373
v -0.242991 0.000000 0.030374
v -0.303738 0.000000 0.030374
vt 0.517578 0.195312
vt 0.525391 0.195312
vt 0.525391 0.193359
vt 0.517578 0.193359
vt 0.046875 0.353516
vt 0.039970 0.352608
vt 0.046875 0.355469
vt 0.371094 0.515625
vt 0.371094 0.523438
vt 0.373047 0.523438
vt 0.052399 0.351227
vt 0.046875 0.353516
vt 0.046875 0.355469
vt 0.053780 0.352608
vt 0.041351 0.351227
vt 0.517578 0.199219
vt 0.525391 0.199219
vt 0.525391 0.197266
vt 0.517578 0.197266
vt 0.041351 0.351227
vt 0.037109 0.345703
vt 0.039970 0.352608
vt 0.349609 0.111328
vt 0.356515 0.108468
vt 0.355134 0.107087
vt 0.356515 0.108468
vt 0.359375 0.101562
vt 0.357422 0.101562
vt 0.355134 0.107087
vt 0.349609 0.109375
vt 0.373047 0.515625
vt 0.342704 0.108468
vt 0.349609 0.111328
vt 0.349609 0.109375
vt 0.441406 0.521484
vt 0.447266 0.519531
vt 0.441406 0.519531
vt 0.300781 0.519531
vt 0.300781 0.525391
vt 0.302734 0.525391
vt 0.302734 0.519531
vt 0.281250 0.429688
vt 0.281250 0.437500
vt 0.283203 0.437500
vt 0.054688 0.345703
vt 0.052399 0.351227
vt 0.053780 0.352608
vt 0.056641 0.345703
vt 0.234375 0.519531
vt 0.234375 0.525391
vt 0.236328 0.525391
vt 0.236328 0.519531
vt 0.447266 0.521484
vt 0.449219 0.521484
vt 0.455078 0.519531
vt 0.449219 0.519531
vt 0.039062 0.345703
vt 0.265625 0.183594
vt 0.265625 0.175781
vt 0.263672 0.175781
vt 0.263672 0.183594
vt 0.039062 0.345703
vt 0.039970 0.338798
vt 0.037109 0.345703
vt 0.359375 0.101562
vt 0.356515 0.094657
vt 0.355134 0.096038
vt 0.357422 0.101562
vt 0.455078 0.521484
vt 0.501953 0.369141
vt 0.501953 0.363281
vt 0.500000 0.363281
vt 0.500000 0.369141
vt 0.344085 0.107087
vt 0.283203 0.429688
vt 0.339844 0.101562
vt 0.342704 0.108468
vt 0.344085 0.107087
vt 0.341797 0.101562
vt 0.525391 0.232422
vt 0.517578 0.232422
vt 0.517578 0.234375
vt 0.052399 0.340179
vt 0.054688 0.345703
vt 0.056641 0.345703
vt 0.053780 0.338798
vt 0.519531 0.519531
vt 0.513672 0.519531
vt 0.513672 0.521484
vt 0.519531 0.521484
vt 0.342704 0.094657
vt 0.339844 0.101562
vt 0.341797 0.101562
vt 0.344085 0.096038
vt 0.041351 0.340179
vt 0.142578 0.394531
vt 0.142578 0.386719
vt 0.140625 0.386719
vt 0.140625 0.394531
vt 0.041351 0.340179
vt 0.046875 0.335938
vt 0.039970 0.338798
vt 0.356515 0.094657
vt 0.349609 0.091797
vt 0.349609 0.093750
vt 0.355134 0.096038
vt 0.183594 0.525391
vt 0.183594 0.519531
vt 0.181641 0.519531
vt 0.181641 0.525391
vt 0.046875 0.337891
vt 0.525391 0.234375
vt 0.525391 0.228516
vt 0.517578 0.228516
vt 0.517578 0.230469
vt 0.046875 0.337891
vt 0.052399 0.340179
vt 0.053780 0.338798
vt 0.046875 0.335938
vt 0.511719 0.519531
vt 0.505859 0.519531
vt 0.505859 0.521484
vt 0.511719 0.521484
vt 0.349609 0.091797
vt 0.342704 0.094657
vt 0.344085 0.096038
vt 0.349609 0.093750
vt 0.525391 0.230469
vn 0.923880 0.191342 -0.331414
vn 0.923880 0.191342 -0.331414
vn 0.923880 0.191342 -0.331414
vn 0.923880 0.191342 -0.331414
vn -0.000000 -0.866025 -0.500000
vn -0.000000 -0.866025 -0.500000
vn -0.000000 -0.866025 -0.500000
vn 0.923880 -0.191342 0.331414
vn 0.923880 -0.191342 0.331414
vn 0.923880 -0.191342 0.331414
vn 0.000000 -0.866025 -0.500000
vn 0.000000 -0.866025 -0.500000
vn 0.000000 -0.866025 -0.500000
vn 0.000000 -0.866025 -0.500000
vn -0.000000 -0.866025 -0.500000
vn 0.382683 0.461940 -0.800103
vn 0.382683 0.461940 -0.800103
vn 0.382683 0.461940 -0.800103
vn 0.382683 0.461940 -0.800103
vn 0.000000 -0.866025 -0.500000
vn 0.000000 -0.866025 -0.500000
vn 0.000000 -0.866025 -0.500000
vn -0.000000 0.866025 0.500000
vn -0.000000 0.866025 0.500000
vn -0.000000 0.866025 0.500000
vn -0.000000 0.866025 0.500000
vn -0.000000 0.866025 0.500000
vn -0.000000 0.866025 0.500000
vn -0.000000 0.866025 0.500000
vn -0.000000 0.866025 0.500000
vn 0.923880 -0.191342 0.331414
vn 0.000000 0.866025 0.500000
vn 0.000000 0.866025 0.500000
vn 0.000000 0.866025 0.500000
vn -0.923880 -0.191342 0.331414
vn -0.923880 -0.191342 0.331414
vn -0.923880 -0.191342 0.331414
vn -0.923880 0.191342 -0.331414
vn -0.923880 0.191342 -0.331414
vn -0.923880 0.191342 -0.331414
vn -0.923880 0.191342 -0.331414
vn 0.382683 -0.461940 0.800103
vn 0.382683 -0.461940 0.800103
vn 0.382683 -0.461940 0.800103
vn -0.000000 -0.866025 -0.500000
vn -0.000000 -0.866025 -0.500000
vn -0.000000 -0.866025 -0.500000
vn -0.000000 -0.866025 -0.500000
vn -0.382683 0.461940 -0.800103
vn -0.382683 0.461940 -0.800103
vn -0.382683 0.461940 -0.800103
vn -0.382683 0.461940 -0.800103
vn -0.923880 -0.191342 0.331414
vn -0.382683 -0.461940 0.800103
vn -0.382683 -0.461940 0.800103
vn -0.382683 -0.461940 0.800103
vn 0.000000 -0.866025 -0.500000
vn -0.382683 0.461940 -0.800103
vn -0.382683 0.461940 -0.800103
vn -0.382683 0.461940 -0.800103
vn -0.382683 0.461940 -0.800103
vn 0.000000 -0.866025 -0.500000
vn 0.000000 -0.866025 -0.500000
vn 0.000000 -0.866025 -0.500000
vn -0.000000 0.866025 0.500000
vn -0.000000 0.866025 0.500000
vn -0.000000 0.866025 0.500000
vn -0.000000 0.866025 0.500000
vn -0.382683 -0.461940 0.800103
vn 0.382683 -0.461940 0.800103
vn 0.382683 -0.461940 0.800103
vn 0.382683 -0.461940 0.800103
vn 0.382683 -0.461940 0.800103
vn 0.000000 0.866025 0.500000
vn 0.382683 -0.461940 0.800103
vn 0.000000 0.866025 0.500000
vn 0.000000 0.866025 0.500000
vn 0.000000 0.866025 0.500000
vn 0.000000 0.866025 0.500000
vn -0.382683 -0.461940 0.800103
vn -0.382683 -0.461940 0.800103
vn -0.382683 -0.461940 0.800103
vn -0.000000 -0.866025 -0.500000
vn -0.000000 -0.866025 -0.500000
vn -0.000000 -0.866025 -0.500000
vn -0.000000 -0.866025 -0.500000
vn 0.382683 0.461940 -0.800103
vn 0.382683 0.461940 -0.800103
vn 0.382683 0.461940 -0.800103
vn 0.382683 0.461940 -0.800103
vn -0.000000 0.866025 0.500000
vn -0.000000 0.866025 0.500000
vn -0.000000 0.866025 0.500000
vn -0.000000 0.866025 0.500000
vn 0.000000 -0.866025 -0.500000
vn -0.923880 0.191342 -0.331414
vn -0.923880 0.191342 -0.331414
vn -0.923880 0.191342 -0.331414
vn -0.923880 0.191342 -0.331414
vn 0.000000 -0.866025 -0.500000
vn 0.000000 -0.866025 -0.500000
vn 0.000000 -0.866025 -0.500000
vn 0.000000 0.866025 0.500000
vn 0.000000 0.866025 0.500000
vn 0.000000 0.866025 0.500000
vn 0.000000 0.866025 0.500000
vn 0.923880 -0.191342 0.331414
vn 0.923880 -0.191342 0.331414
vn 0.923880 -0.191342 0.331414
vn 0.923880 -0.191342 0.331414
vn 0.000000 -0.866025 -0.500000
vn -0.382683 -0.461940 0.800103
vn -0.923880 -0.191342 0.331414
vn -0.923880 -0.191342 0.331414
vn -0.923880 -0.191342 0.331414
vn 0.000000 -0.866025 -0.500000
vn 0.000000 -0.866025 -0.500000
vn 0.000000 -0.866025 -0.500000
vn 0.000000 -0.866025 -0.500000
vn 0.923880 0.191342 -0.331414
vn 0.923880 0.191342 -0.331414
vn 0.923880 0.191342 -0.331414
vn 0.923880 0.191342 -0.331414
vn -0.000000 0.866025 0.500000
vn -0.000000 0.866025 0.500000
vn -0.000000 0.866025 0.500000
vn -0.000000 0.866025 0.500000
vn -0.923880 -0.191342 0.331414
f 1/1/1 2/2/2 3/3/3
f 1/1/1 3/3/3 4/4/4
f 5/5/5 6/6/6 7/7/7
f 8/8/8 9/9/9 10/10/10
f 11/11/11 12/12/12 13/13/13
f 11/11/11 13/13/13 14/14/14
f 5/5/5 15/15/15 6/6/6
f 16/16/16 17/17/17 18/18/18
f 16/16/16 18/18/18 19/19/19
f 20/20/20 21/21/21 22/22/22
f 23/23/23 24/24/24 25/25/25
f 26/26/26 27/27/27 28/28/28
f 26/26/26 28/28/28 29/29/29
f 23/23/23 25/25/25 30/30/30
f 8/8/8 10/10/10 31/31/31
f 32/32/32 33/33/33 34/34/34
f 35/35/35 36/36/36 37/37/37
f 38/38/38 39/39/39 40/40/40
f 38/38/38 40/40/40 41/41/41
f 42/42/42 43/43/43 44/44/44
f 45/45/45 46/46/46 47/47/47
f 45/45/45 47/47/47 48/48/48
f 49/49/49 50/50/50 51/51/51
f 49/49/49 51/51/51 52/52/52
f 35/35/35 53/53/53 36/36/36
f 54/54/54 55/55/55 56/56/56
f 20/20/20 57/57/57 21/21/21
f 58/58/58 59/59/59 60/60/60
f 58/58/58 60/60/60 61/61/61
f 62/62/62 63/63/63 64/64/64
f 65/65/65 66/66/66 67/67/67
f 65/65/65 67/67/67 68/68/68
f 54/54/54 69/69/69 55/55/55
f 70/70/70 71/71/71 72/72/72
f 70/70/70 72/72/72 73/73/73
f 32/32/32 34/34/34 74/74/74
f 42/42/42 44/44/44 75/75/75
f 76/76/76 77/77/77 78/78/78
f 76/76/76 78/78/78 79/79/79
f 80/80/80 81/81/81 82/82/82
f 83/83/83 84/84/84 85/85/85
f 83/83/83 85/85/85 86/86/86
f 87/87/87 88/88/88 89/89/89
f 87/87/87 89/89/89 90/90/90
f 91/91/91 92/92/92 93/93/93
f 91/91/91 93/93/93 94/94/94
f 62/62/62 95/95/95 63/63/63
f 96/96/96 97/97/97 98/98/98
f 96/96/96 98/98/98 99/99/99
f 100/100/100 101/101/101 102/102/102
f 103/103/103 104/104/104 105/105/105
f 103/103/103 105/105/105 106/106/106
f 107/107/107 108/108/108 109/109/109
f 107/107/107 109/109/109 110/110/110
f 100/100/100 111/111/111 101/101/101
f 80/80/80 82/82/82 112/112/112
f 113/113/113 114/114/114 115/115/115
f 116/116/116 117/117/117 118/118/118
f 116/116/116 118/118/118 119/119/119
f 120/120/120 121/121/121 122/122/122
f 120/120/120 122/122/122 123/123/123
f 124/124/124 125/125/125 126/126/126
f 124/124/124 126/126/126 127/127/127
f 113/113/113 115/115/115 128/128/128
