# Exported blue_retro_car_wheel_fl
mtllib blue_retro_car_wheel_fl.mtl
usemtl blue_retro_car_wheel_fl_mat
v 0.075645 -0.000393 -0.162390
v 0.075645 -0.115451 -0.114731
v 0.075645 -0.000393 0.000327
v 0.151579 -0.092439 -0.091720
v 0.075645 -0.115451 -0.114731
v 0.075645 -0.000393 -0.162390
v 0.151579 -0.000393 -0.129847
v 0.151579 -0.092439 -0.091720
v 0.151579 -0.000393 -0.129847
v 0.151579 -0.000393 0.000327
v 0.075645 -0.115451 -0.114731
v 0.075645 -0.163110 0.000327
v 0.075645 -0.000393 0.000327
v 0.151579 -0.130567 0.000327
v 0.075645 -0.163110 0.000327
v 0.075645 -0.115451 -0.114731
v 0.151579 -0.092439 -0.091720
v 0.151579 -0.130567 0.000327
v 0.151579 -0.092439 -0.091720
v 0.151579 -0.000393 0.000327
v 0.075645 -0.163110 0.000327
v 0.075645 -0.115451 0.115385
v 0.075645 -0.000393 0.000327
v 0.151579 -0.092439 0.092374
v 0.075645 -0.115451 0.115385
v 0.075645 -0.163110 0.000327
v 0.151579 -0.130567 0.000327
v 0.151579 -0.092439 0.092374
v 0.151579 -0.130567 0.000327
v 0.151579 -0.000393 0.000327
v 0.075645 -0.115451 0.115385
v 0.075645 -0.000393 0.163044
v 0.075645 -0.000393 0.000327
v 0.151579 -0.000393 0.130501
v 0.075645 -0.000393 0.163044
v 0.075645 -0.115451 0.115385
v 0.151579 -0.092439 0.092374
v 0.151579 -0.000393 0.130501
v 0.151579 -0.092439 0.092374
v 0.151579 -0.000393 0.000327
v 0.075645 -0.000393 0.163044
v 0.075645 0.114665 0.115385
v 0.075645 -0.000393 0.000327
v 0.151579 0.091654 0.092374
v 0.075645 0.114665 0.115385
v 0.075645 -0.000393 0.163044
v 0.151579 -0.000393 0.130501
v 0.151579 0.091654 0.092374
v 0.151579 -0.000393 0.130501
v 0.151579 -0.000393 0.000327
v 0.075645 0.114665 0.115385
v 0.075645 0.162325 0.000327
v 0.075645 -0.000393 0.000327
v 0.151579 0.129781 0.000327
v 0.075645 0.162325 0.000327
v 0.075645 0.114665 0.115385
v 0.151579 0.091654 0.092374
v 0.151579 0.129781 0.000327
v 0.151579 0.091654 0.092374
v 0.151579 -0.000393 0.000327
v 0.075645 0.162325 0.000327
v 0.075645 0.114665 -0.114731
v 0.075645 -0.000393 0.000327
v 0.151579 0.091654 -0.091720
v 0.075645 0.114665 -0.114731
v 0.075645 0.162325 0.000327
v 0.151579 0.129781 0.000327
v 0.151579 0.091654 -0.091720
v 0.151579 0.129781 0.000327
v 0.151579 -0.000393 0.000327
v 0.075645 0.114665 -0.114731
v 0.075645 -0.000393 -0.162390
v 0.075645 -0.000393 0.000327
v 0.151579 -0.000393 -0.129847
v 0.075645 -0.000393 -0.162390
v 0.075645 0.114665 -0.114731
v 0.151579 0.091654 -0.091720
v 0.151579 -0.000393 -0.129847
v 0.151579 0.091654 -0.091720
v 0.151579 -0.000393 0.000327
v 0.151579 -0.000393 -0.455280
v 0.151579 -0.228196 -0.394240
v -0.152159 -0.228196 -0.394240
v -0.152159 -0.000393 -0.455280
v -0.152159 -0.000393 -0.260020
v -0.152159 -0.130567 -0.225140
v 0.151579 -0.130567 -0.225140
v 0.151579 -0.000393 -0.260020
v 0.151579 -0.000393 -0.260020
v 0.151579 -0.130567 -0.225140
v 0.151579 -0.228196 -0.394240
v 0.151579 -0.000393 -0.455280
v -0.152159 -0.000393 -0.455280
v -0.152159 -0.228196 -0.394240
v -0.152159 -0.130567 -0.225140
v -0.152159 -0.000393 -0.260020
v 0.151579 -0.228196 -0.394240
v 0.151579 -0.394960 -0.227477
v -0.152159 -0.394960 -0.227477
v -0.152159 -0.228196 -0.394240
v -0.152159 -0.130567 -0.225140
v -0.152159 -0.225860 -0.129847
v 0.151579 -0.225860 -0.129847
v 0.151579 -0.130567 -0.225140
v 0.151579 -0.130567 -0.225140
v 0.151579 -0.225860 -0.129847
v 0.151579 -0.394960 -0.227477
v 0.151579 -0.228196 -0.394240
v -0.152159 -0.228196 -0.394240
v -0.152159 -0.394960 -0.227477
v -0.152159 -0.225860 -0.129847
v -0.152159 -0.130567 -0.225140
v 0.151579 -0.394960 -0.227477
v 0.151579 -0.456000 0.000327
v -0.152159 -0.456000 0.000327
v -0.152159 -0.394960 -0.227477
v -0.152159 -0.225860 -0.129847
v -0.152159 -0.260740 0.000327
v 0.151579 -0.260740 0.000327
v 0.151579 -0.225860 -0.129847
v 0.151579 -0.225860 -0.129847
v 0.151579 -0.260740 0.000327
v 0.151579 -0.456000 0.000327
v 0.151579 -0.394960 -0.227477
v -0.152159 -0.394960 -0.227477
v -0.152159 -0.456000 0.000327
v -0.152159 -0.260740 0.000327
v -0.152159 -0.225860 -0.129847
v 0.151579 -0.456000 0.000327
v 0.151579 -0.394960 0.228131
v -0.152159 -0.394960 0.228131
v -0.152159 -0.456000 0.000327
v -0.152159 -0.260740 0.000327
v -0.152159 -0.225860 0.130501
v 0.151579 -0.225860 0.130501
v 0.151579 -0.260740 0.000327
v 0.151579 -0.260740 0.000327
v 0.151579 -0.225860 0.130501
v 0.151579 -0.394960 0.228131
v 0.151579 -0.456000 0.000327
v -0.152159 -0.456000 0.000327
v -0.152159 -0.394960 0.228131
v -0.152159 -0.225860 0.130501
v -0.152159 -0.260740 0.000327
v 0.151579 -0.394960 0.228131
v 0.151579 -0.228196 0.394894
v -0.152159 -0.228196 0.394894
v -0.152159 -0.394960 0.228131
v -0.152159 -0.225860 0.130501
v -0.152159 -0.130567 0.225794
v 0.151579 -0.130567 0.225794
v 0.151579 -0.225860 0.130501
v 0.151579 -0.225860 0.130501
v 0.151579 -0.130567 0.225794
v 0.151579 -0.228196 0.394894
v 0.151579 -0.394960 0.228131
v -0.152159 -0.394960 0.228131
v -0.152159 -0.228196 0.394894
v -0.152159 -0.130567 0.225794
v -0.152159 -0.225860 0.130501
v 0.151579 -0.228196 0.394894
v 0.151579 -0.000393 0.455935
v -0.152159 -0.000393 0.455935
v -0.152159 -0.228196 0.394894
v -0.152159 -0.130567 0.225794
v -0.152159 -0.000393 0.260674
v 0.151579 -0.000393 0.260674
v 0.151579 -0.130567 0.225794
v 0.151579 -0.130567 0.225794
v 0.151579 -0.000393 0.260674
v 0.151579 -0.000393 0.455935
v 0.151579 -0.228196 0.394894
v -0.152159 -0.228196 0.394894
v -0.152159 -0.000393 0.455935
v -0.152159 -0.000393 0.260674
v -0.152159 -0.130567 0.225794
v 0.151579 -0.000393 0.455935
v 0.151579 0.227411 0.394894
v -0.152159 0.227411 0.394894
v -0.152159 -0.000393 0.455935
v -0.152159 -0.000393 0.260674
v -0.152159 0.129781 0.225794
v 0.151579 0.129781 0.225794
v 0.151579 -0.000393 0.260674
v 0.151579 -0.000393 0.260674
v 0.151579 0.129781 0.225794
v 0.151579 0.227411 0.394894
v 0.151579 -0.000393 0.455935
v -0.152159 -0.000393 0.455935
v -0.152159 0.227411 0.394894
v -0.152159 0.129781 0.225794
v -0.152159 -0.000393 0.260674
v 0.151579 0.227411 0.394894
v 0.151579 0.394175 0.228131
v -0.152159 0.394175 0.228131
v -0.152159 0.227411 0.394894
v -0.152159 0.129781 0.225794
v -0.152159 0.225075 0.130501
v 0.151579 0.225075 0.130501
v 0.151579 0.129781 0.225794
v 0.151579 0.129781 0.225794
v 0.151579 0.225075 0.130501
v 0.151579 0.394175 0.228131
v 0.151579 0.227411 0.394894
v -0.152159 0.227411 0.394894
v -0.152159 0.394175 0.228131
v -0.152159 0.225075 0.130501
v -0.152159 0.129781 0.225794
v 0.151579 0.394175 0.228131
v 0.151579 0.455215 0.000327
v -0.152159 0.455215 0.000327
v -0.152159 0.394175 0.228131
v -0.152159 0.225075 0.130501
v -0.152159 0.259954 0.000327
v 0.151579 0.259954 0.000327
v 0.151579 0.225075 0.130501
v 0.151579 0.225075 0.130501
v 0.151579 0.259954 0.000327
v 0.151579 0.455215 0.000327
v 0.151579 0.394175 0.228131
v -0.152159 0.394175 0.228131
v -0.152159 0.455215 0.000327
v -0.152159 0.259954 0.000327
v -0.152159 0.225075 0.130501
v 0.151579 0.455215 0.000327
v 0.151579 0.394175 -0.227477
v -0.152159 0.394175 -0.227477
v -0.152159 0.455215 0.000327
v -0.152159 0.259954 0.000327
v -0.152159 0.225075 -0.129847
v 0.151579 0.225075 -0.129847
v 0.151579 0.259954 0.000327
v 0.151579 0.259954 0.000327
v 0.151579 0.225075 -0.129847
v 0.151579 0.394175 -0.227477
v 0.151579 0.455215 0.000327
v -0.152159 0.455215 0.000327
v -0.152159 0.394175 -0.227477
v -0.152159 0.225075 -0.129847
v -0.152159 0.259954 0.000327
v 0.151579 0.394175 -0.227477
v 0.151579 0.227411 -0.394240
v -0.152159 0.227411 -0.394240
v -0.152159 0.394175 -0.227477
v -0.152159 0.225075 -0.129847
v -0.152159 0.129781 -0.225140
v 0.151579 0.129781 -0.225140
v 0.151579 0.225075 -0.129847
v 0.151579 0.225075 -0.129847
v 0.151579 0.129781 -0.225140
v 0.151579 0.227411 -0.394240
v 0.151579 0.394175 -0.227477
v -0.152159 0.394175 -0.227477
v -0.152159 0.227411 -0.394240
v -0.152159 0.129781 -0.225140
v -0.152159 0.225075 -0.129847
v 0.151579 0.227411 -0.394240
v 0.151579 -0.000393 -0.455280
v -0.152159 -0.000393 -0.455280
v -0.152159 0.227411 -0.394240
v -0.152159 0.129781 -0.225140
v -0.152159 -0.000393 -0.260020
v 0.151579 -0.000393 -0.260020
v 0.151579 0.129781 -0.225140
v 0.151579 0.129781 -0.225140
v 0.151579 -0.000393 -0.260020
v 0.151579 -0.000393 -0.455280
v 0.151579 0.227411 -0.394240
v -0.152159 0.227411 -0.394240
v -0.152159 -0.000393 -0.455280
v -0.152159 -0.000393 -0.260020
v -0.152159 0.129781 -0.225140
v 0.075645 -0.130567 -0.225140
v 0.075645 -0.000393 -0.260020
v 0.075645 -0.000393 0.000327
v 0.075645 -0.000393 -0.260020
v 0.075645 -0.130567 -0.225140
v -0.076224 -0.130567 -0.225140
v -0.076224 -0.000393 -0.260020
v -0.076224 -0.000393 -0.260020
v -0.076224 -0.130567 -0.225140
v -0.076224 -0.000393 0.000327
v 0.075645 -0.225860 -0.129847
v 0.075645 -0.130567 -0.225140
v 0.075645 -0.000393 0.000327
v 0.075645 -0.130567 -0.225140
v 0.075645 -0.225860 -0.129847
v -0.076224 -0.225860 -0.129847
v -0.076224 -0.130567 -0.225140
v -0.076224 -0.130567 -0.225140
v -0.076224 -0.225860 -0.129847
v -0.076224 -0.000393 0.000327
v 0.075645 -0.260740 0.000327
v 0.075645 -0.225860 -0.129847
v 0.075645 -0.000393 0.000327
v 0.075645 -0.225860 -0.129847
v 0.075645 -0.260740 0.000327
v -0.076224 -0.260740 0.000327
v -0.076224 -0.225860 -0.129847
v -0.076224 -0.225860 -0.129847
v -0.076224 -0.260740 0.000327
v -0.076224 -0.000393 0.000327
v 0.075645 -0.225860 0.130501
v 0.075645 -0.260740 0.000327
v 0.075645 -0.000393 0.000327
v 0.075645 -0.260740 0.000327
v 0.075645 -0.225860 0.130501
v -0.076224 -0.225860 0.130501
v -0.076224 -0.260740 0.000327
v -0.076224 -0.260740 0.000327
v -0.076224 -0.225860 0.130501
v -0.076224 -0.000393 0.000327
v 0.075645 -0.130567 0.225794
v 0.075645 -0.225860 0.130501
v 0.075645 -0.000393 0.000327
v 0.075645 -0.225860 0.130501
v 0.075645 -0.130567 0.225794
v -0.076224 -0.130567 0.225794
v -0.076224 -0.225860 0.130501
v -0.076224 -0.225860 0.130501
v -0.076224 -0.130567 0.225794
v -0.076224 -0.000393 0.000327
v 0.075645 -0.000393 0.260674
v 0.075645 -0.130567 0.225794
v 0.075645 -0.000393 0.000327
v 0.075645 -0.130567 0.225794
v 0.075645 -0.000393 0.260674
v -0.076224 -0.000393 0.260674
v -0.076224 -0.130567 0.225794
v -0.076224 -0.130567 0.225794
v -0.076224 -0.000393 0.260674
v -0.076224 -0.000393 0.000327
v 0.075645 0.129781 0.225794
v 0.075645 -0.000393 0.260674
v 0.075645 -0.000393 0.000327
v 0.075645 -0.000393 0.260674
v 0.075645 0.129781 0.225794
v -0.076224 0.129781 0.225794
v -0.076224 -0.000393 0.260674
v -0.076224 -0.000393 0.260674
v -0.076224 0.129781 0.225794
v -0.076224 -0.000393 0.000327
v 0.075645 0.225075 0.130501
v 0.075645 0.129781 0.225794
v 0.075645 -0.000393 0.000327
v 0.075645 0.129781 0.225794
v 0.075645 0.225075 0.130501
v -0.076224 0.225075 0.130501
v -0.076224 0.129781 0.225794
v -0.076224 0.129781 0.225794
v -0.076224 0.225075 0.130501
v -0.076224 -0.000393 0.000327
v 0.075645 0.259954 0.000327
v 0.075645 0.225075 0.130501
v 0.075645 -0.000393 0.000327
v 0.075645 0.225075 0.130501
v 0.075645 0.259954 0.000327
v -0.076224 0.259954 0.000327
v -0.076224 0.225075 0.130501
v -0.076224 0.225075 0.130501
v -0.076224 0.259954 0.000327
v -0.076224 -0.000393 0.000327
v 0.075645 0.225075 -0.129847
v 0.075645 0.259954 0.000327
v 0.075645 -0.000393 0.000327
v 0.075645 0.259954 0.000327
v 0.075645 0.225075 -0.129847
v -0.076224 0.225075 -0.129847
v -0.076224 0.259954 0.000327
v -0.076224 0.259954 0.000327
v -0.076224 0.225075 -0.129847
v -0.076224 -0.000393 0.000327
v 0.075645 0.129781 -0.225140
v 0.075645 0.225075 -0.129847
v 0.075645 -0.000393 0.000327
v 0.075645 0.225075 -0.129847
v 0.075645 0.129781 -0.225140
v -0.076224 0.129781 -0.225140
v -0.076224 0.225075 -0.129847
v -0.076224 0.225075 -0.129847
v -0.076224 0.129781 -0.225140
v -0.076224 -0.000393 0.000327
v 0.075645 -0.000393 -0.260020
v 0.075645 0.129781 -0.225140
v 0.075645 -0.000393 0.000327
v 0.075645 0.129781 -0.225140
v 0.075645 -0.000393 -0.260020
v -0.076224 -0.000393 -0.260020
v -0.076224 0.129781 -0.225140
v -0.076224 0.129781 -0.225140
v -0.076224 -0.000393 -0.260020
v -0.076224 -0.000393 0.000327
v -0.076224 -0.115451 -0.114731
v -0.076224 -0.000393 -0.162390
v -0.076224 -0.000393 0.000327
v -0.076224 -0.000393 -0.162390
v -0.076224 -0.115451 -0.114731
v -0.152159 -0.092439 -0.091720
v -0.152159 -0.000393 -0.129847
v -0.152159 -0.000393 -0.129847
v -0.152159 -0.092439 -0.091720
v -0.152159 -0.000393 0.000327
v -0.076224 -0.163110 0.000327
v -0.076224 -0.115451 -0.114731
v -0.076224 -0.000393 0.000327
v -0.076224 -0.115451 -0.114731
v -0.076224 -0.163110 0.000327
v -0.152159 -0.130567 0.000327
v -0.152159 -0.092439 -0.091720
v -0.152159 -0.092439 -0.091720
v -0.152159 -0.130567 0.000327
v -0.152159 -0.000393 0.000327
v -0.076224 -0.115451 0.115385
v -0.076224 -0.163110 0.000327
v -0.076224 -0.000393 0.000327
v -0.076224 -0.163110 0.000327
v -0.076224 -0.115451 0.115385
v -0.152159 -0.092439 0.092374
v -0.152159 -0.130567 0.000327
v -0.152159 -0.130567 0.000327
v -0.152159 -0.092439 0.092374
v -0.152159 -0.000393 0.000327
v -0.076224 -0.000393 0.163044
v -0.076224 -0.115451 0.115385
v -0.076224 -0.000393 0.000327
v -0.076224 -0.115451 0.115385
v -0.076224 -0.000393 0.163044
v -0.152159 -0.000393 0.130501
v -0.152159 -0.092439 0.092374
v -0.152159 -0.092439 0.092374
v -0.152159 -0.000393 0.130501
v -0.152159 -0.000393 0.000327
v -0.076224 0.114665 0.115385
v -0.076224 -0.000393 0.163044
v -0.076224 -0.000393 0.000327
v -0.076224 -0.000393 0.163044
v -0.076224 0.114665 0.115385
v -0.152159 0.091654 0.092374
v -0.152159 -0.000393 0.130501
v -0.152159 -0.000393 0.130501
v -0.152159 0.091654 0.092374
v -0.152159 -0.000393 0.000327
v -0.076224 0.162325 0.000327
v -0.076224 0.114665 0.115385
v -0.076224 -0.000393 0.000327
v -0.076224 0.114665 0.115385
v -0.076224 0.162325 0.000327
v -0.152159 0.129781 0.000327
v -0.152159 0.091654 0.092374
v -0.152159 0.091654 0.092374
v -0.152159 0.129781 0.000327
v -0.152159 -0.000393 0.000327
v -0.076224 0.114665 -0.114731
v -0.076224 0.162325 0.000327
v -0.076224 -0.000393 0.000327
v -0.076224 0.162325 0.000327
v -0.076224 0.114665 -0.114731
v -0.152159 0.091654 -0.091720
v -0.152159 0.129781 0.000327
v -0.152159 0.129781 0.000327
v -0.152159 0.091654 -0.091720
v -0.152159 -0.000393 0.000327
v -0.076224 -0.000393 -0.162390
v -0.076224 0.114665 -0.114731
v -0.076224 -0.000393 0.000327
v -0.076224 0.114665 -0.114731
v -0.076224 -0.000393 -0.162390
v -0.152159 -0.000393 -0.129847
v -0.152159 0.091654 -0.091720
v -0.152159 0.091654 -0.091720
v -0.152159 -0.000393 -0.129847
v -0.152159 -0.000393 0.000327
vt 0.186245 0.456403
vt 0.184712 0.452704
vt 0.181013 0.456403
vt 0.482422 0.528994
vt 0.484375 0.529395
vt 0.484375 0.525391
vt 0.482422 0.525791
vt 0.145817 0.485660
vt 0.147043 0.482701
vt 0.142857 0.482701
vt 0.184712 0.452704
vt 0.181013 0.451172
vt 0.181013 0.456403
vt 0.228516 0.528994
vt 0.230469 0.529395
vt 0.230469 0.525391
vt 0.228516 0.525791
vt 0.142857 0.486886
vt 0.145817 0.485660
vt 0.142857 0.482701
vt 0.181013 0.451172
vt 0.177314 0.452704
vt 0.181013 0.456403
vt 0.251650 0.527344
vt 0.252051 0.525391
vt 0.248047 0.525391
vt 0.248447 0.527344
vt 0.139898 0.485660
vt 0.142857 0.486886
vt 0.142857 0.482701
vt 0.177314 0.452704
vt 0.175781 0.456403
vt 0.181013 0.456403
vt 0.441104 0.525391
vt 0.441504 0.523438
vt 0.437500 0.523438
vt 0.437901 0.525391
vt 0.138672 0.482701
vt 0.139898 0.485660
vt 0.142857 0.482701
vt 0.175781 0.456403
vt 0.177314 0.460103
vt 0.181013 0.456403
vt 0.527041 0.400391
vt 0.527442 0.398438
vt 0.523438 0.398438
vt 0.523838 0.400391
vt 0.139898 0.479742
vt 0.138672 0.482701
vt 0.142857 0.482701
vt 0.177314 0.460103
vt 0.181013 0.461635
vt 0.181013 0.456403
vt 0.527041 0.507812
vt 0.527442 0.505859
vt 0.523438 0.505859
vt 0.523838 0.507812
vt 0.142857 0.478516
vt 0.139898 0.479742
vt 0.142857 0.482701
vt 0.181013 0.461635
vt 0.184712 0.460103
vt 0.181013 0.456403
vt 0.478516 0.527041
vt 0.480469 0.527442
vt 0.480469 0.523438
vt 0.478516 0.523838
vt 0.145817 0.479742
vt 0.142857 0.478516
vt 0.142857 0.482701
vt 0.184712 0.460103
vt 0.186245 0.456403
vt 0.181013 0.456403
vt 0.367188 0.528994
vt 0.369141 0.529395
vt 0.369141 0.525391
vt 0.367188 0.525791
vt 0.147043 0.482701
vt 0.145817 0.479742
vt 0.142857 0.482701
vt 0.117188 0.267578
vt 0.125000 0.267578
vt 0.125000 0.257812
vt 0.117188 0.257812
vt 0.261719 0.492188
vt 0.257812 0.492188
vt 0.257812 0.501953
vt 0.261719 0.501953
vt 0.257394 0.110352
vt 0.256272 0.114537
vt 0.261709 0.117676
vt 0.263672 0.110352
vt 0.285156 0.014648
vt 0.283194 0.007324
vt 0.277757 0.010463
vt 0.278878 0.014648
vt 0.464844 0.455078
vt 0.472656 0.455078
vt 0.472656 0.445312
vt 0.464844 0.445312
vt 0.267578 0.492188
vt 0.263672 0.492188
vt 0.263672 0.501953
vt 0.267578 0.501953
vt 0.256272 0.114537
vt 0.253209 0.117601
vt 0.256348 0.123038
vt 0.261709 0.117676
vt 0.283194 0.007324
vt 0.277832 0.001962
vt 0.274693 0.007399
vt 0.277757 0.010463
vt 0.003906 0.476562
vt 0.011719 0.476562
vt 0.011719 0.466797
vt 0.003906 0.466797
vt 0.496094 0.326172
vt 0.492188 0.326172
vt 0.492188 0.335938
vt 0.496094 0.335938
vt 0.253209 0.117601
vt 0.249023 0.118722
vt 0.249023 0.125000
vt 0.256348 0.123038
vt 0.277832 0.001962
vt 0.270508 0.000000
vt 0.270508 0.006278
vt 0.274693 0.007399
vt 0.466797 0.037109
vt 0.474609 0.037109
vt 0.474609 0.027344
vt 0.466797 0.027344
vt 0.433594 0.492188
vt 0.429688 0.492188
vt 0.429688 0.501953
vt 0.433594 0.501953
vt 0.249023 0.118722
vt 0.244838 0.117601
vt 0.241699 0.123038
vt 0.249023 0.125000
vt 0.270508 0.000000
vt 0.263184 0.001962
vt 0.266322 0.007399
vt 0.270508 0.006278
vt 0.466797 0.070312
vt 0.474609 0.070312
vt 0.474609 0.060547
vt 0.466797 0.060547
vt 0.498047 0.042969
vt 0.494141 0.042969
vt 0.494141 0.052734
vt 0.498047 0.052734
vt 0.244838 0.117601
vt 0.241774 0.114537
vt 0.236337 0.117676
vt 0.241699 0.123038
vt 0.263184 0.001962
vt 0.257822 0.007324
vt 0.263259 0.010463
vt 0.266322 0.007399
vt 0.466797 0.082031
vt 0.474609 0.082031
vt 0.474609 0.072266
vt 0.466797 0.072266
vt 0.052734 0.494141
vt 0.048828 0.494141
vt 0.048828 0.503906
vt 0.052734 0.503906
vt 0.241774 0.114537
vt 0.240653 0.110352
vt 0.234375 0.110352
vt 0.236337 0.117676
vt 0.257822 0.007324
vt 0.255859 0.014648
vt 0.262137 0.014648
vt 0.263259 0.010463
vt 0.140625 0.476562
vt 0.148438 0.476562
vt 0.148438 0.466797
vt 0.140625 0.466797
vt 0.382812 0.494141
vt 0.378906 0.494141
vt 0.378906 0.503906
vt 0.382812 0.503906
vt 0.240653 0.110352
vt 0.241774 0.106166
vt 0.236337 0.103027
vt 0.234375 0.110352
vt 0.255859 0.014648
vt 0.257822 0.021973
vt 0.263259 0.018834
vt 0.262137 0.014648
vt 0.281250 0.476562
vt 0.289062 0.476562
vt 0.289062 0.466797
vt 0.281250 0.466797
vt 0.388672 0.494141
vt 0.384766 0.494141
vt 0.384766 0.503906
vt 0.388672 0.503906
vt 0.241774 0.106166
vt 0.244838 0.103103
vt 0.241699 0.097666
vt 0.236337 0.103027
vt 0.257822 0.021973
vt 0.263184 0.027334
vt 0.266322 0.021897
vt 0.263259 0.018834
vt 0.466797 0.291016
vt 0.474609 0.291016
vt 0.474609 0.281250
vt 0.466797 0.281250
vt 0.394531 0.494141
vt 0.390625 0.494141
vt 0.390625 0.503906
vt 0.394531 0.503906
vt 0.244838 0.103103
vt 0.249023 0.101981
vt 0.249023 0.095703
vt 0.241699 0.097666
vt 0.263184 0.027334
vt 0.270508 0.029297
vt 0.270508 0.023019
vt 0.266322 0.021897
vt 0.035156 0.478516
vt 0.042969 0.478516
vt 0.042969 0.468750
vt 0.035156 0.468750
vt 0.421875 0.494141
vt 0.417969 0.494141
vt 0.417969 0.503906
vt 0.421875 0.503906
vt 0.249023 0.101981
vt 0.253209 0.103103
vt 0.256348 0.097666
vt 0.249023 0.095703
vt 0.270508 0.029297
vt 0.277832 0.027334
vt 0.274693 0.021897
vt 0.270508 0.023019
vt 0.468750 0.123047
vt 0.476562 0.123047
vt 0.476562 0.113281
vt 0.468750 0.113281
vt 0.427734 0.494141
vt 0.423828 0.494141
vt 0.423828 0.503906
vt 0.427734 0.503906
vt 0.253209 0.103103
vt 0.256272 0.106166
vt 0.261709 0.103027
vt 0.256348 0.097666
vt 0.277832 0.027334
vt 0.283194 0.021973
vt 0.277757 0.018834
vt 0.274693 0.021897
vt 0.468750 0.193359
vt 0.476562 0.193359
vt 0.476562 0.183594
vt 0.468750 0.183594
vt 0.488281 0.494141
vt 0.484375 0.494141
vt 0.484375 0.503906
vt 0.488281 0.503906
vt 0.256272 0.106166
vt 0.257394 0.110352
vt 0.263672 0.110352
vt 0.261709 0.103027
vt 0.283194 0.021973
vt 0.285156 0.014648
vt 0.278878 0.014648
vt 0.277757 0.018834
vt 0.242182 0.364118
vt 0.243304 0.359933
vt 0.234933 0.359933
vt 0.509766 0.406250
vt 0.513672 0.406250
vt 0.513672 0.400391
vt 0.509766 0.400391
vt 0.315569 0.359933
vt 0.314448 0.355748
vt 0.307199 0.359933
vt 0.239118 0.367182
vt 0.242182 0.364118
vt 0.234933 0.359933
vt 0.402344 0.515625
vt 0.406250 0.515625
vt 0.406250 0.509766
vt 0.402344 0.509766
vt 0.314448 0.355748
vt 0.311384 0.352684
vt 0.307199 0.359933
vt 0.234933 0.368304
vt 0.239118 0.367182
vt 0.234933 0.359933
vt 0.408203 0.515625
vt 0.412109 0.515625
vt 0.412109 0.509766
vt 0.408203 0.509766
vt 0.311384 0.352684
vt 0.307199 0.351562
vt 0.307199 0.359933
vt 0.230748 0.367182
vt 0.234933 0.368304
vt 0.234933 0.359933
vt 0.509766 0.443359
vt 0.513672 0.443359
vt 0.513672 0.437500
vt 0.509766 0.437500
vt 0.307199 0.351562
vt 0.303013 0.352684
vt 0.307199 0.359933
vt 0.227684 0.364118
vt 0.230748 0.367182
vt 0.234933 0.359933
vt 0.509766 0.451172
vt 0.513672 0.451172
vt 0.513672 0.445312
vt 0.509766 0.445312
vt 0.303013 0.352684
vt 0.299950 0.355748
vt 0.307199 0.359933
vt 0.226562 0.359933
vt 0.227684 0.364118
vt 0.234933 0.359933
vt 0.458984 0.515625
vt 0.462891 0.515625
vt 0.462891 0.509766
vt 0.458984 0.509766
vt 0.299950 0.355748
vt 0.298828 0.359933
vt 0.307199 0.359933
vt 0.227684 0.355748
vt 0.226562 0.359933
vt 0.234933 0.359933
vt 0.468750 0.515625
vt 0.472656 0.515625
vt 0.472656 0.509766
vt 0.468750 0.509766
vt 0.298828 0.359933
vt 0.299950 0.364118
vt 0.307199 0.359933
vt 0.230748 0.352684
vt 0.227684 0.355748
vt 0.234933 0.359933
vt 0.474609 0.515625
vt 0.478516 0.515625
vt 0.478516 0.509766
vt 0.474609 0.509766
vt 0.299950 0.364118
vt 0.303013 0.367182
vt 0.307199 0.359933
vt 0.234933 0.351562
vt 0.230748 0.352684
vt 0.234933 0.359933
vt 0.509766 0.482422
vt 0.513672 0.482422
vt 0.513672 0.476562
vt 0.509766 0.476562
vt 0.303013 0.367182
vt 0.307199 0.368304
vt 0.307199 0.359933
vt 0.239118 0.352684
vt 0.234933 0.351562
vt 0.234933 0.359933
vt 0.509766 0.490234
vt 0.513672 0.490234
vt 0.513672 0.484375
vt 0.509766 0.484375
vt 0.307199 0.368304
vt 0.311384 0.367182
vt 0.307199 0.359933
vt 0.242182 0.355748
vt 0.239118 0.352684
vt 0.234933 0.359933
vt 0.509766 0.498047
vt 0.513672 0.498047
vt 0.513672 0.492188
vt 0.509766 0.492188
vt 0.311384 0.367182
vt 0.314448 0.364118
vt 0.307199 0.359933
vt 0.243304 0.359933
vt 0.242182 0.355748
vt 0.234933 0.359933
vt 0.011719 0.517578
vt 0.015625 0.517578
vt 0.015625 0.511719
vt 0.011719 0.511719
vt 0.314448 0.364118
vt 0.315569 0.359933
vt 0.307199 0.359933
vt 0.266743 0.460103
vt 0.268276 0.456403
vt 0.263044 0.456403
vt 0.525391 0.462891
vt 0.529395 0.462891
vt 0.528994 0.460938
vt 0.525791 0.460938
vt 0.486886 0.187779
vt 0.485660 0.184820
vt 0.482701 0.187779
vt 0.263044 0.461635
vt 0.266743 0.460103
vt 0.263044 0.456403
vt 0.117188 0.527344
vt 0.121192 0.527344
vt 0.120791 0.525391
vt 0.117588 0.525391
vt 0.485660 0.184820
vt 0.482701 0.183594
vt 0.482701 0.187779
vt 0.259345 0.460103
vt 0.263044 0.461635
vt 0.263044 0.456403
vt 0.128906 0.525391
vt 0.128906 0.529395
vt 0.130859 0.528994
vt 0.130859 0.525791
vt 0.482701 0.183594
vt 0.479742 0.184820
vt 0.482701 0.187779
vt 0.257812 0.456403
vt 0.259345 0.460103
vt 0.263044 0.456403
vt 0.414062 0.525391
vt 0.414062 0.529395
vt 0.416016 0.528994
vt 0.416016 0.525791
vt 0.479742 0.184820
vt 0.478516 0.187779
vt 0.482701 0.187779
vt 0.259345 0.452704
vt 0.257812 0.456403
vt 0.263044 0.456403
vt 0.371094 0.525391
vt 0.371094 0.529395
vt 0.373047 0.528994
vt 0.373047 0.525791
vt 0.478516 0.187779
vt 0.479742 0.190738
vt 0.482701 0.187779
vt 0.263044 0.451172
vt 0.259345 0.452704
vt 0.263044 0.456403
vt 0.015625 0.525391
vt 0.015625 0.529395
vt 0.017578 0.528994
vt 0.017578 0.525791
vt 0.479742 0.190738
vt 0.482701 0.191964
vt 0.482701 0.187779
vt 0.266743 0.452704
vt 0.263044 0.451172
vt 0.263044 0.456403
vt 0.208984 0.527344
vt 0.212988 0.527344
vt 0.212588 0.525391
vt 0.209385 0.525391
vt 0.482701 0.191964
vt 0.485660 0.190738
vt 0.482701 0.187779
vt 0.268276 0.456403
vt 0.266743 0.452704
vt 0.263044 0.456403
vt 0.525391 0.373047
vt 0.529395 0.373047
vt 0.528994 0.371094
vt 0.525791 0.371094
vt 0.485660 0.190738
vt 0.486886 0.187779
vt 0.482701 0.187779
vn -1.000000 0.000000 0.000000
vn -1.000000 0.000000 0.000000
vn -1.000000 0.000000 0.000000
vn 0.368141 -0.355808 -0.858995
vn 0.368141 -0.355808 -0.858995
vn 0.368141 -0.355808 -0.858995
vn 0.368141 -0.355808 -0.858995
vn 1.000000 -0.000000 0.000000
vn 1.000000 -0.000000 0.000000
vn 1.000000 -0.000000 0.000000
vn -1.000000 0.000000 0.000000
vn -1.000000 0.000000 0.000000
vn -1.000000 0.000000 0.000000
vn 0.368141 -0.858995 -0.355808
vn 0.368141 -0.858995 -0.355808
vn 0.368141 -0.858995 -0.355808
vn 0.368141 -0.858995 -0.355808
vn 1.000000 -0.000000 0.000000
vn 1.000000 -0.000000 0.000000
vn 1.000000 -0.000000 0.000000
vn -1.000000 0.000000 0.000000
vn -1.000000 0.000000 0.000000
vn -1.000000 0.000000 0.000000
vn 0.368141 -0.858995 0.355808
vn 0.368141 -0.858995 0.355808
vn 0.368141 -0.858995 0.355808
vn 0.368141 -0.858995 0.355808
vn 1.000000 0.000000 0.000000
vn 1.000000 0.000000 0.000000
vn 1.000000 0.000000 0.000000
vn -1.000000 0.000000 0.000000
vn -1.000000 0.000000 0.000000
vn -1.000000 0.000000 0.000000
vn 0.368141 -0.355808 0.858995
vn 0.368141 -0.355808 0.858995
vn 0.368141 -0.355808 0.858995
vn 0.368141 -0.355808 0.858995
vn 1.000000 0.000000 0.000000
vn 1.000000 0.000000 0.000000
vn 1.000000 0.000000 0.000000
vn -1.000000 0.000000 0.000000
vn -1.000000 0.000000 0.000000
vn -1.000000 0.000000 0.000000
vn 0.368141 0.355808 0.858995
vn 0.368141 0.355808 0.858995
vn 0.368141 0.355808 0.858995
vn 0.368141 0.355808 0.858995
vn 1.000000 0.000000 0.000000
vn 1.000000 0.000000 0.000000
vn 1.000000 0.000000 0.000000
vn -1.000000 0.000000 -0.000000
vn -1.000000 0.000000 -0.000000
vn -1.000000 0.000000 -0.000000
vn 0.368141 0.858995 0.355808
vn 0.368141 0.858995 0.355808
vn 0.368141 0.858995 0.355808
vn 0.368141 0.858995 0.355808
vn 1.000000 0.000000 0.000000
vn 1.000000 0.000000 0.000000
vn 1.000000 0.000000 0.000000
vn -1.000000 0.000000 0.000000
vn -1.000000 0.000000 0.000000
vn -1.000000 0.000000 0.000000
vn 0.368141 0.858995 -0.355808
vn 0.368141 0.858995 -0.355808
vn 0.368141 0.858995 -0.355808
vn 0.368141 0.858995 -0.355808
vn 1.000000 0.000000 -0.000000
vn 1.000000 0.000000 -0.000000
vn 1.000000 0.000000 -0.000000
vn -1.000000 -0.000000 0.000000
vn -1.000000 -0.000000 0.000000
vn -1.000000 -0.000000 0.000000
vn 0.368141 0.355808 -0.858995
vn 0.368141 0.355808 -0.858995
vn 0.368141 0.355808 -0.858995
vn 0.368141 0.355808 -0.858995
vn 1.000000 0.000000 0.000000
vn 1.000000 0.000000 0.000000
vn 1.000000 0.000000 0.000000
vn 0.000000 -0.258819 -0.965926
vn 0.000000 -0.258819 -0.965926
vn 0.000000 -0.258819 -0.965926
vn 0.000000 -0.258819 -0.965926
vn -0.000000 0.258819 0.965926
vn -0.000000 0.258819 0.965926
vn -0.000000 0.258819 0.965926
vn -0.000000 0.258819 0.965926
vn 1.000000 0.000000 0.000000
vn 1.000000 0.000000 0.000000
vn 1.000000 0.000000 0.000000
vn 1.000000 0.000000 0.000000
vn -1.000000 0.000000 0.000000
vn -1.000000 0.000000 0.000000
vn -1.000000 0.000000 0.000000
vn -1.000000 0.000000 0.000000
vn 0.000000 -0.707107 -0.707107
vn 0.000000 -0.707107 -0.707107
vn 0.000000 -0.707107 -0.707107
vn 0.000000 -0.707107 -0.707107
vn -0.000000 0.707107 0.707107
vn -0.000000 0.707107 0.707107
vn -0.000000 0.707107 0.707107
vn -0.000000 0.707107 0.707107
vn 1.000000 0.000000 0.000000
vn 1.000000 0.000000 0.000000
vn 1.000000 0.000000 0.000000
vn 1.000000 0.000000 0.000000
vn -1.000000 0.000000 0.000000
vn -1.000000 0.000000 0.000000
vn -1.000000 0.000000 0.000000
vn -1.000000 0.000000 0.000000
vn 0.000000 -0.965926 -0.258819
vn 0.000000 -0.965926 -0.258819
vn 0.000000 -0.965926 -0.258819
vn 0.000000 -0.965926 -0.258819
vn 0.000000 0.965926 0.258819
vn 0.000000 0.965926 0.258819
vn 0.000000 0.965926 0.258819
vn 0.000000 0.965926 0.258819
vn 1.000000 0.000000 0.000000
vn 1.000000 0.000000 0.000000
vn 1.000000 0.000000 0.000000
vn 1.000000 0.000000 0.000000
vn -1.000000 0.000000 0.000000
vn -1.000000 0.000000 0.000000
vn -1.000000 0.000000 0.000000
vn -1.000000 0.000000 0.000000
vn 0.000000 -0.965926 0.258819
vn 0.000000 -0.965926 0.258819
vn 0.000000 -0.965926 0.258819
vn 0.000000 -0.965926 0.258819
vn 0.000000 0.965926 -0.258819
vn 0.000000 0.965926 -0.258819
vn 0.000000 0.965926 -0.258819
vn 0.000000 0.965926 -0.258819
vn 1.000000 0.000000 0.000000
vn 1.000000 0.000000 0.000000
vn 1.000000 0.000000 0.000000
vn 1.000000 0.000000 0.000000
vn -1.000000 0.000000 0.000000
vn -1.000000 0.000000 0.000000
vn -1.000000 0.000000 0.000000
vn -1.000000 0.000000 0.000000
vn 0.000000 -0.707107 0.707107
vn 0.000000 -0.707107 0.707107
vn 0.000000 -0.707107 0.707107
vn 0.000000 -0.707107 0.707107
vn 0.000000 0.707107 -0.707107
vn 0.000000 0.707107 -0.707107
vn 0.000000 0.707107 -0.707107
vn 0.000000 0.707107 -0.707107
vn 1.000000 0.000000 0.000000
vn 1.000000 0.000000 0.000000
vn 1.000000 0.000000 0.000000
vn 1.000000 0.000000 0.000000
vn -1.000000 0.000000 0.000000
vn -1.000000 0.000000 0.000000
vn -1.000000 0.000000 0.000000
vn -1.000000 0.000000 0.000000
vn 0.000000 -0.258819 0.965926
vn 0.000000 -0.258819 0.965926
vn 0.000000 -0.258819 0.965926
vn 0.000000 -0.258819 0.965926
vn 0.000000 0.258819 -0.965926
vn 0.000000 0.258819 -0.965926
vn 0.000000 0.258819 -0.965926
vn 0.000000 0.258819 -0.965926
vn 1.000000 0.000000 0.000000
vn 1.000000 0.000000 0.000000
vn 1.000000 0.000000 0.000000
vn 1.000000 0.000000 0.000000
vn -1.000000 0.000000 0.000000
vn -1.000000 0.000000 0.000000
vn -1.000000 0.000000 0.000000
vn -1.000000 0.000000 0.000000
vn 0.000000 0.258819 0.965926
vn 0.000000 0.258819 0.965926
vn 0.000000 0.258819 0.965926
vn 0.000000 0.258819 0.965926
vn 0.000000 -0.258819 -0.965926
vn 0.000000 -0.258819 -0.965926
vn 0.000000 -0.258819 -0.965926
vn 0.000000 -0.258819 -0.965926
vn 1.000000 0.000000 0.000000
vn 1.000000 0.000000 0.000000
vn 1.000000 0.000000 0.000000
vn 1.000000 0.000000 0.000000
vn -1.000000 0.000000 0.000000
vn -1.000000 0.000000 0.000000
vn -1.000000 0.000000 0.000000
vn -1.000000 0.000000 0.000000
vn 0.000000 0.707107 0.707107
vn 0.000000 0.707107 0.707107
vn 0.000000 0.707107 0.707107
vn 0.000000 0.707107 0.707107
vn 0.000000 -0.707107 -0.707107
vn 0.000000 -0.707107 -0.707107
vn 0.000000 -0.707107 -0.707107
vn 0.000000 -0.707107 -0.707107
vn 1.000000 0.000000 0.000000
vn 1.000000 0.000000 0.000000
vn 1.000000 0.000000 0.000000
vn 1.000000 0.000000 0.000000
vn -1.000000 0.000000 0.000000
vn -1.000000 0.000000 0.000000
vn -1.000000 0.000000 0.000000
vn -1.000000 0.000000 0.000000
vn 0.000000 0.965926 0.258819
vn 0.000000 0.965926 0.258819
vn 0.000000 0.965926 0.258819
vn 0.000000 0.965926 0.258819
vn 0.000000 -0.965926 -0.258819
vn 0.000000 -0.965926 -0.258819
vn 0.000000 -0.965926 -0.258819
vn 0.000000 -0.965926 -0.258819
vn 1.000000 0.000000 0.000000
vn 1.000000 0.000000 0.000000
vn 1.000000 0.000000 0.000000
vn 1.000000 0.000000 0.000000
vn -1.000000 0.000000 0.000000
vn -1.000000 0.000000 0.000000
vn -1.000000 0.000000 0.000000
vn -1.000000 0.000000 0.000000
vn 0.000000 0.965926 -0.258819
vn 0.000000 0.965926 -0.258819
vn 0.000000 0.965926 -0.258819
vn 0.000000 0.965926 -0.258819
vn -0.000000 -0.965926 0.258819
vn -0.000000 -0.965926 0.258819
vn -0.000000 -0.965926 0.258819
vn -0.000000 -0.965926 0.258819
vn 1.000000 0.000000 0.000000
vn 1.000000 0.000000 0.000000
vn 1.000000 0.000000 0.000000
vn 1.000000 0.000000 0.000000
vn -1.000000 0.000000 0.000000
vn -1.000000 0.000000 0.000000
vn -1.000000 0.000000 0.000000
vn -1.000000 0.000000 0.000000
vn 0.000000 0.707107 -0.707107
vn 0.000000 0.707107 -0.707107
vn 0.000000 0.707107 -0.707107
vn 0.000000 0.707107 -0.707107
vn -0.000000 -0.707107 0.707107
vn -0.000000 -0.707107 0.707107
vn -0.000000 -0.707107 0.707107
vn -0.000000 -0.707107 0.707107
vn 1.000000 0.000000 0.000000
vn 1.000000 0.000000 0.000000
vn 1.000000 0.000000 0.000000
vn 1.000000 0.000000 0.000000
vn -1.000000 0.000000 0.000000
vn -1.000000 0.000000 0.000000
vn -1.000000 0.000000 0.000000
vn -1.000000 0.000000 0.000000
vn 0.000000 0.258819 -0.965926
vn 0.000000 0.258819 -0.965926
vn 0.000000 0.258819 -0.965926
vn 0.000000 0.258819 -0.965926
vn -0.000000 -0.258819 0.965926
vn -0.000000 -0.258819 0.965926
vn -0.000000 -0.258819 0.965926
vn -0.000000 -0.258819 0.965926
vn 1.000000 0.000000 0.000000
vn 1.000000 0.000000 0.000000
vn 1.000000 0.000000 0.000000
vn 1.000000 0.000000 0.000000
vn -1.000000 0.000000 0.000000
vn -1.000000 0.000000 0.000000
vn -1.000000 0.000000 0.000000
vn -1.000000 0.000000 0.000000
vn 1.000000 -0.000000 0.000000
vn 1.000000 -0.000000 0.000000
vn 1.000000 -0.000000 0.000000
vn 0.000000 -0.258819 -0.965926
vn 0.000000 -0.258819 -0.965926
vn 0.000000 -0.258819 -0.965926
vn 0.000000 -0.258819 -0.965926
vn -1.000000 0.000000 0.000000
vn -1.000000 0.000000 0.000000
vn -1.000000 0.000000 0.000000
vn 1.000000 -0.000000 0.000000
vn 1.000000 -0.000000 0.000000
vn 1.000000 -0.000000 0.000000
vn 0.000000 -0.707107 -0.707107
vn 0.000000 -0.707107 -0.707107
vn 0.000000 -0.707107 -0.707107
vn 0.000000 -0.707107 -0.707107
vn -1.000000 0.000000 0.000000
vn -1.000000 0.000000 0.000000
vn -1.000000 0.000000 0.000000
vn 1.000000 -0.000000 0.000000
vn 1.000000 -0.000000 0.000000
vn 1.000000 -0.000000 0.000000
vn 0.000000 -0.965926 -0.258819
vn 0.000000 -0.965926 -0.258819
vn 0.000000 -0.965926 -0.258819
vn 0.000000 -0.965926 -0.258819
vn -1.000000 0.000000 0.000000
vn -1.000000 0.000000 0.000000
vn -1.000000 0.000000 0.000000
vn 1.000000 0.000000 0.000000
vn 1.000000 0.000000 0.000000
vn 1.000000 0.000000 0.000000
vn 0.000000 -0.965926 0.258819
vn 0.000000 -0.965926 0.258819
vn 0.000000 -0.965926 0.258819
vn 0.000000 -0.965926 0.258819
vn -1.000000 0.000000 0.000000
vn -1.000000 0.000000 0.000000
vn -1.000000 0.000000 0.000000
vn 1.000000 0.000000 0.000000
vn 1.000000 0.000000 0.000000
vn 1.000000 0.000000 0.000000
vn 0.000000 -0.707107 0.707107
vn 0.000000 -0.707107 0.707107
vn 0.000000 -0.707107 0.707107
vn 0.000000 -0.707107 0.707107
vn -1.000000 0.000000 0.000000
vn -1.000000 0.000000 0.000000
vn -1.000000 0.000000 0.000000
vn 1.000000 0.000000 0.000000
vn 1.000000 0.000000 0.000000
vn 1.000000 0.000000 0.000000
vn 0.000000 -0.258819 0.965926
vn 0.000000 -0.258819 0.965926
vn 0.000000 -0.258819 0.965926
vn 0.000000 -0.258819 0.965926
vn -1.000000 0.000000 0.000000
vn -1.000000 0.000000 0.000000
vn -1.000000 0.000000 0.000000
vn 1.000000 0.000000 0.000000
vn 1.000000 0.000000 0.000000
vn 1.000000 0.000000 0.000000
vn 0.000000 0.258819 0.965926
vn 0.000000 0.258819 0.965926
vn 0.000000 0.258819 0.965926
vn 0.000000 0.258819 0.965926
vn -1.000000 0.000000 0.000000
vn -1.000000 0.000000 0.000000
vn -1.000000 0.000000 0.000000
vn 1.000000 0.000000 0.000000
vn 1.000000 0.000000 0.000000
vn 1.000000 0.000000 0.000000
vn 0.000000 0.707107 0.707107
vn 0.000000 0.707107 0.707107
vn 0.000000 0.707107 0.707107
vn 0.000000 0.707107 0.707107
vn -1.000000 0.000000 -0.000000
vn -1.000000 0.000000 -0.000000
vn -1.000000 0.000000 -0.000000
vn 1.000000 0.000000 0.000000
vn 1.000000 0.000000 0.000000
vn 1.000000 0.000000 0.000000
vn 0.000000 0.965926 0.258819
vn 0.000000 0.965926 0.258819
vn 0.000000 0.965926 0.258819
vn 0.000000 0.965926 0.258819
vn -1.000000 0.000000 -0.000000
vn -1.000000 0.000000 -0.000000
vn -1.000000 0.000000 -0.000000
vn 1.000000 0.000000 -0.000000
vn 1.000000 0.000000 -0.000000
vn 1.000000 0.000000 -0.000000
vn 0.000000 0.965926 -0.258819
vn 0.000000 0.965926 -0.258819
vn 0.000000 0.965926 -0.258819
vn 0.000000 0.965926 -0.258819
vn -1.000000 0.000000 0.000000
vn -1.000000 0.000000 0.000000
vn -1.000000 0.000000 0.000000
vn 1.000000 0.000000 -0.000000
vn 1.000000 0.000000 -0.000000
vn 1.000000 0.000000 -0.000000
vn 0.000000 0.707107 -0.707107
vn 0.000000 0.707107 -0.707107
vn 0.000000 0.707107 -0.707107
vn 0.000000 0.707107 -0.707107
vn -1.000000 -0.000000 0.000000
vn -1.000000 -0.000000 0.000000
vn -1.000000 -0.000000 0.000000
vn 1.000000 0.000000 -0.000000
vn 1.000000 0.000000 -0.000000
vn 1.000000 0.000000 -0.000000
vn 0.000000 0.258819 -0.965926
vn 0.000000 0.258819 -0.965926
vn 0.000000 0.258819 -0.965926
vn 0.000000 0.258819 -0.965926
vn -1.000000 -0.000000 0.000000
vn -1.000000 -0.000000 0.000000
vn -1.000000 -0.000000 0.000000
vn 1.000000 -0.000000 0.000000
vn 1.000000 -0.000000 0.000000
vn 1.000000 -0.000000 0.000000
vn -0.368141 -0.355808 -0.858995
vn -0.368141 -0.355808 -0.858995
vn -0.368141 -0.355808 -0.858995
vn -0.368141 -0.355808 -0.858995
vn -1.000000 0.000000 0.000000
vn -1.000000 0.000000 0.000000
vn -1.000000 0.000000 0.000000
vn 1.000000 -0.000000 0.000000
vn 1.000000 -0.000000 0.000000
vn 1.000000 -0.000000 0.000000
vn -0.368141 -0.858995 -0.355808
vn -0.368141 -0.858995 -0.355808
vn -0.368141 -0.858995 -0.355808
vn -0.368141 -0.858995 -0.355808
vn -1.000000 0.000000 0.000000
vn -1.000000 0.000000 0.000000
vn -1.000000 0.000000 0.000000
vn 1.000000 0.000000 0.000000
vn 1.000000 0.000000 0.000000
vn 1.000000 0.000000 0.000000
vn -0.368141 -0.858995 0.355808
vn -0.368141 -0.858995 0.355808
vn -0.368141 -0.858995 0.355808
vn -0.368141 -0.858995 0.355808
vn -1.000000 0.000000 0.000000
vn -1.000000 0.000000 0.000000
vn -1.000000 0.000000 0.000000
vn 1.000000 0.000000 0.000000
vn 1.000000 0.000000 0.000000
vn 1.000000 0.000000 0.000000
vn -0.368141 -0.355808 0.858995
vn -0.368141 -0.355808 0.858995
vn -0.368141 -0.355808 0.858995
vn -0.368141 -0.355808 0.858995
vn -1.000000 0.000000 0.000000
vn -1.000000 0.000000 0.000000
vn -1.000000 0.000000 0.000000
vn 1.000000 0.000000 0.000000
vn 1.000000 0.000000 0.000000
vn 1.000000 0.000000 0.000000
vn -0.368141 0.355808 0.858995
vn -0.368141 0.355808 0.858995
vn -0.368141 0.355808 0.858995
vn -0.368141 0.355808 0.858995
vn -1.000000 0.000000 0.000000
vn -1.000000 0.000000 0.000000
vn -1.000000 0.000000 0.000000
vn 1.000000 0.000000 0.000000
vn 1.000000 0.000000 0.000000
vn 1.000000 0.000000 0.000000
vn -0.368141 0.858995 0.355808
vn -0.368141 0.858995 0.355808
vn -0.368141 0.858995 0.355808
vn -0.368141 0.858995 0.355808
vn -1.000000 0.000000 -0.000000
vn -1.000000 0.000000 -0.000000
vn -1.000000 0.000000 -0.000000
vn 1.000000 0.000000 -0.000000
vn 1.000000 0.000000 -0.000000
vn 1.000000 0.000000 -0.000000
vn -0.368141 0.858995 -0.355808
vn -0.368141 0.858995 -0.355808
vn -0.368141 0.858995 -0.355808
vn -0.368141 0.858995 -0.355808
vn -1.000000 0.000000 0.000000
vn -1.000000 0.000000 0.000000
vn -1.000000 0.000000 0.000000
vn 1.000000 0.000000 -0.000000
vn 1.000000 0.000000 -0.000000
vn 1.000000 0.000000 -0.000000
vn -0.368141 0.355808 -0.858995
vn -0.368141 0.355808 -0.858995
vn -0.368141 0.355808 -0.858995
vn -0.368141 0.355808 -0.858995
vn -1.000000 -0.000000 0.000000
vn -1.000000 -0.000000 0.000000
vn -1.000000 -0.000000 0.000000
f 1/1/1 2/2/2 3/3/3
f 4/4/4 5/5/5 6/6/6
f 4/4/4 6/6/6 7/7/7
f 8/8/8 9/9/9 10/10/10
f 11/11/11 12/12/12 13/13/13
f 14/14/14 15/15/15 16/16/16
f 14/14/14 16/16/16 17/17/17
f 18/18/18 19/19/19 20/20/20
f 21/21/21 22/22/22 23/23/23
f 24/24/24 25/25/25 26/26/26
f 24/24/24 26/26/26 27/27/27
f 28/28/28 29/29/29 30/30/30
f 31/31/31 32/32/32 33/33/33
f 34/34/34 35/35/35 36/36/36
f 34/34/34 36/36/36 37/37/37
f 38/38/38 39/39/39 40/40/40
f 41/41/41 42/42/42 43/43/43
f 44/44/44 45/45/45 46/46/46
f 44/44/44 46/46/46 47/47/47
f 48/48/48 49/49/49 50/50/50
f 51/51/51 52/52/52 53/53/53
f 54/54/54 55/55/55 56/56/56
f 54/54/54 56/56/56 57/57/57
f 58/58/58 59/59/59 60/60/60
f 61/61/61 62/62/62 63/63/63
f 64/64/64 65/65/65 66/66/66
f 64/64/64 66/66/66 67/67/67
f 68/68/68 69/69/69 70/70/70
f 71/71/71 72/72/72 73/73/73
f 74/74/74 75/75/75 76/76/76
f 74/74/74 76/76/76 77/77/77
f 78/78/78 79/79/79 80/80/80
f 81/81/81 82/82/82 83/83/83
f 81/81/81 83/83/83 84/84/84
f 85/85/85 86/86/86 87/87/87
f 85/85/85 87/87/87 88/88/88
f 89/89/89 90/90/90 91/91/91
f 89/89/89 91/91/91 92/92/92
f 93/93/93 94/94/94 95/95/95
f 93/93/93 95/95/95 96/96/96
f 97/97/97 98/98/98 99/99/99
f 97/97/97 99/99/99 100/100/100
f 101/101/101 102/102/102 103/103/103
f 101/101/101 103/103/103 104/104/104
f 105/105/105 106/106/106 107/107/107
f 105/105/105 107/107/107 108/108/108
f 109/109/109 110/110/110 111/111/111
f 109/109/109 111/111/111 112/112/112
f 113/113/113 114/114/114 115/115/115
f 113/113/113 115/115/115 116/116/116
f 117/117/117 118/118/118 119/119/119
f 117/117/117 119/119/119 120/120/120
f 121/121/121 122/122/122 123/123/123
f 121/121/121 123/123/123 124/124/124
f 125/125/125 126/126/126 127/127/127
f 125/125/125 127/127/127 128/128/128
f 129/129/129 130/130/130 131/131/131
f 129/129/129 131/131/131 132/132/132
f 133/133/133 134/134/134 135/135/135
f 133/133/133 135/135/135 136/136/136
f 137/137/137 138/138/138 139/139/139
f 137/137/137 139/139/139 140/140/140
f 141/141/141 142/142/142 143/143/143
f 141/141/141 143/143/143 144/144/144
f 145/145/145 146/146/146 147/147/147
f 145/145/145 147/147/147 148/148/148
f 149/149/149 150/150/150 151/151/151
f 149/149/149 151/151/151 152/152/152
f 153/153/153 154/154/154 155/155/155
f 153/153/153 155/155/155 156/156/156
f 157/157/157 158/158/158 159/159/159
f 157/157/157 159/159/159 160/160/160
f 161/161/161 162/162/162 163/163/163
f 161/161/161 163/163/163 164/164/164
f 165/165/165 166/166/166 167/167/167
f 165/165/165 167/167/167 168/168/168
f 169/169/169 170/170/170 171/171/171
f 169/169/169 171/171/171 172/172/172
f 173/173/173 174/174/174 175/175/175
f 173/173/173 175/175/175 176/176/176
f 177/177/177 178/178/178 179/179/179
f 177/177/177 179/179/179 180/180/180
f 181/181/181 182/182/182 183/183/183
f 181/181/181 183/183/183 184/184/184
f 185/185/185 186/186/186 187/187/187
f 185/185/185 187/187/187 188/188/188
f 189/189/189 190/190/190 191/191/191
f 189/189/189 191/191/191 192/192/192
f 193/193/193 194/194/194 195/195/195
f 193/193/193 195/195/195 196/196/196
f 197/197/197 198/198/198 199/199/199
f 197/197/197 199/199/199 200/200/200
f 201/201/201 202/202/202 203/203/203
f 201/201/201 203/203/203 204/204/204
f 205/205/205 206/206/206 207/207/207
f 205/205/205 207/207/207 208/208/208
f 209/209/209 210/210/210 211/211/211
f 209/209/209 211/211/211 212/212/212
f 213/213/213 214/214/214 215/215/215
f 213/213/213 215/215/215 216/216/216
f 217/217/217 218/218/218 219/219/219
f 217/217/217 219/219/219 220/220/220
f 221/221/221 222/222/222 223/223/223
f 221/221/221 223/223/223 224/224/224
f 225/225/225 226/226/226 227/227/227
f 225/225/225 227/227/227 228/228/228
f 229/229/229 230/230/230 231/231/231
f 229/229/229 231/231/231 232/232/232
f 233/233/233 234/234/234 235/235/235
f 233/233/233 235/235/235 236/236/236
f 237/237/237 238/238/238 239/239/239
f 237/237/237 239/239/239 240/240/240
f 241/241/241 242/242/242 243/243/243
f 241/241/241 243/243/243 244/244/244
f 245/245/245 246/246/246 247/247/247
f 245/245/245 247/247/247 248/248/248
f 249/249/249 250/250/250 251/251/251
f 249/249/249 251/251/251 252/252/252
f 253/253/253 254/254/254 255/255/255
f 253/253/253 255/255/255 256/256/256
f 257/257/257 258/258/258 259/259/259
f 257/257/257 259/259/259 260/260/260
f 261/261/261 262/262/262 263/263/263
f 261/261/261 263/263/263 264/264/264
f 265/265/265 266/266/266 267/267/267
f 265/265/265 267/267/267 268/268/268
f 269/269/269 270/270/270 271/271/271
f 269/269/269 271/271/271 272/272/272
f 273/273/273 274/274/274 275/275/275
f 276/276/276 277/277/277 278/278/278
f 276/276/276 278/278/278 279/279/279
f 280/280/280 281/281/281 282/282/282
f 283/283/283 284/284/284 285/285/285
f 286/286/286 287/287/287 288/288/288
f 286/286/286 288/288/288 289/289/289
f 290/290/290 291/291/291 292/292/292
f 293/293/293 294/294/294 295/295/295
f 296/296/296 297/297/297 298/298/298
f 296/296/296 298/298/298 299/299/299
f 300/300/300 301/301/301 302/302/302
f 303/303/303 304/304/304 305/305/305
f 306/306/306 307/307/307 308/308/308
f 306/306/306 308/308/308 309/309/309
f 310/310/310 311/311/311 312/312/312
f 313/313/313 314/314/314 315/315/315
f 316/316/316 317/317/317 318/318/318
f 316/316/316 318/318/318 319/319/319
f 320/320/320 321/321/321 322/322/322
f 323/323/323 324/324/324 325/325/325
f 326/326/326 327/327/327 328/328/328
f 326/326/326 328/328/328 329/329/329
f 330/330/330 331/331/331 332/332/332
f 333/333/333 334/334/334 335/335/335
f 336/336/336 337/337/337 338/338/338
f 336/336/336 338/338/338 339/339/339
f 340/340/340 341/341/341 342/342/342
f 343/343/343 344/344/344 345/345/345
f 346/346/346 347/347/347 348/348/348
f 346/346/346 348/348/348 349/349/349
f 350/350/350 351/351/351 352/352/352
f 353/353/353 354/354/354 355/355/355
f 356/356/356 357/357/357 358/358/358
f 356/356/356 358/358/358 359/359/359
f 360/360/360 361/361/361 362/362/362
f 363/363/363 364/364/364 365/365/365
f 366/366/366 367/367/367 368/368/368
f 366/366/366 368/368/368 369/369/369
f 370/370/370 371/371/371 372/372/372
f 373/373/373 374/374/374 375/375/375
f 376/376/376 377/377/377 378/378/378
f 376/376/376 378/378/378 379/379/379
f 380/380/380 381/381/381 382/382/382
f 383/383/383 384/384/384 385/385/385
f 386/386/386 387/387/387 388/388/388
f 386/386/386 388/388/388 389/389/389
f 390/390/390 391/391/391 392/392/392
f 393/393/393 394/394/394 395/395/395
f 396/396/396 397/397/397 398/398/398
f 396/396/396 398/398/398 399/399/399
f 400/400/400 401/401/401 402/402/402
f 403/403/403 404/404/404 405/405/405
f 406/406/406 407/407/407 408/408/408
f 406/406/406 408/408/408 409/409/409
f 410/410/410 411/411/411 412/412/412
f 413/413/413 414/414/414 415/415/415
f 416/416/416 417/417/417 418/418/418
f 416/416/416 418/418/418 419/419/419
f 420/420/420 421/421/421 422/422/422
f 423/423/423 424/424/424 425/425/425
f 426/426/426 427/427/427 428/428/428
f 426/426/426 428/428/428 429/429/429
f 430/430/430 431/431/431 432/432/432
f 433/433/433 434/434/434 435/435/435
f 436/436/436 437/437/437 438/438/438
f 436/436/436 438/438/438 439/439/439
f 440/440/440 441/441/441 442/442/442
f 443/443/443 444/444/444 445/445/445
f 446/446/446 447/447/447 448/448/448
f 446/446/446 448/448/448 449/449/449
f 450/450/450 451/451/451 452/452/452
f 453/453/453 454/454/454 455/455/455
f 456/456/456 457/457/457 458/458/458
f 456/456/456 458/458/458 459/459/459
f 460/460/460 461/461/461 462/462/462
f 463/463/463 464/464/464 465/465/465
f 466/466/466 467/467/467 468/468/468
f 466/466/466 468/468/468 469/469/469
f 470/470/470 471/471/471 472/472/472
